<svg width="210" height="210" viewBox="0 0 210 210" fill="none" xmlns="http://www.w3.org/2000/svg">
<path d="M105 6.5625C94.5569 6.5625 84.5418 10.7109 77.1575 18.0952C69.7733 25.4794 65.6249 35.4946 65.6249 45.9375V52.5H60.178C54.6531 52.4942 49.3389 54.6195 45.3416 58.4334C41.3443 62.2473 38.972 67.4559 38.7186 72.975L33.5342 180.928C33.4013 183.831 33.8576 186.731 34.8756 189.453C35.8935 192.174 37.452 194.662 39.4572 196.765C41.4624 198.869 43.8727 200.544 46.5428 201.691C49.213 202.838 52.0877 203.432 54.9936 203.438H155.006C157.912 203.432 160.787 202.838 163.457 201.691C166.127 200.544 168.537 198.869 170.542 196.765C172.548 194.662 174.106 192.174 175.124 189.453C176.142 186.731 176.598 183.831 176.465 180.928L171.281 72.975C171.028 67.4559 168.655 62.2473 164.658 58.4334C160.661 54.6195 155.347 52.4942 149.822 52.5H144.375V45.9375C144.375 35.4946 140.226 25.4794 132.842 18.0952C125.458 10.7109 115.443 6.5625 105 6.5625ZM78.7499 45.9375C78.7499 38.9756 81.5155 32.2988 86.4383 27.3759C91.3611 22.4531 98.0379 19.6875 105 19.6875C111.962 19.6875 118.639 22.4531 123.561 27.3759C128.484 32.2988 131.25 38.9756 131.25 45.9375V52.5H78.7499V45.9375ZM158.156 73.5656L163.34 181.584C163.382 182.713 163.2 183.839 162.806 184.897C162.412 185.956 161.813 186.926 161.044 187.753C160.258 188.56 159.319 189.202 158.283 189.641C157.246 190.081 156.132 190.309 155.006 190.312H54.9936C53.8676 190.309 52.7537 190.081 51.717 189.641C50.6803 189.202 49.7417 188.56 48.9561 187.753C48.1868 186.926 47.588 185.956 47.1939 184.897C46.7998 183.839 46.6181 182.713 46.6592 181.584L51.8436 73.5656C51.9449 71.4242 52.8675 69.4041 54.4196 67.9253C55.9718 66.4464 58.0341 65.6226 60.178 65.625H149.822C151.966 65.6226 154.028 66.4464 155.58 67.9253C157.132 69.4041 158.055 71.4242 158.156 73.5656Z" fill="#31304F"/>
<path d="M74.5488 86.5599C78.1732 86.5599 81.1113 83.6217 81.1113 79.9974C81.1113 76.373 78.1732 73.4349 74.5488 73.4349C70.9245 73.4349 67.9863 76.373 67.9863 79.9974C67.9863 83.6217 70.9245 86.5599 74.5488 86.5599Z" fill="#31304F"/>
<path d="M135.449 86.5599C139.074 86.5599 142.012 83.6217 142.012 79.9974C142.012 76.373 139.074 73.4349 135.449 73.4349C131.825 73.4349 128.887 76.373 128.887 79.9974C128.887 83.6217 131.825 86.5599 135.449 86.5599Z" fill="#31304F"/>
<path fill-rule="evenodd" clip-rule="evenodd" d="M134.139 114.086C129.294 114.544 125.981 115.117 120.172 116.507C99.5364 121.439 83.0574 132.783 73.7137 148.487C72.3067 150.853 69.8757 155.571 70.005 155.689C70.0447 155.725 71.2267 154.764 72.6324 153.554C81.52 145.903 91.7748 138.464 98.0786 135.095C98.9337 134.638 99.7341 134.191 99.8559 134.102C100.244 133.818 103.807 132.302 105.073 131.881C106.413 131.435 106.853 131.446 105.697 131.895C101.326 133.594 94.795 137.607 87.8064 142.886C81.7102 147.49 69.9925 157.232 70.2461 157.484C70.3554 157.593 72.2632 157.134 75.0211 156.334C76.0303 156.042 77.7293 155.549 78.7994 155.239C105.119 147.611 126.037 134.846 132.363 122.551C134.062 119.248 136.365 116.641 139.366 114.623C140.85 113.627 139.968 113.535 134.139 114.086Z" fill="#8CCC0C"/>
</svg>
