<svg width="12" height="14" viewBox="0 0 12 14" fill="none" xmlns="http://www.w3.org/2000/svg">
<path fill-rule="evenodd" clip-rule="evenodd" d="M4 2.33333V1.99999C4 1.55799 4.176 1.134 4.48867 0.821996C4.80067 0.509329 5.22467 0.333328 5.66667 0.333328H6.33333C6.77533 0.333328 7.19934 0.509329 7.512 0.821996C7.82467 1.134 8 1.55799 8 1.99999V2.33333H11.3333C11.7013 2.33333 12 2.63199 12 2.99999C12 3.36799 11.7013 3.66666 11.3333 3.66666H10.6667V11C10.6667 12.4733 9.47333 13.6667 8 13.6667C6.77867 13.6667 5.222 13.6667 4 13.6667C2.52733 13.6667 1.33333 12.4733 1.33333 11V3.66666H0.666667C0.298667 3.66666 0 3.36799 0 2.99999C0 2.63199 0.298667 2.33333 0.666667 2.33333H4ZM9.33333 3.66666H2.66667V11C2.66667 11.7367 3.264 12.3333 4 12.3333H8C8.73667 12.3333 9.33333 11.7367 9.33333 11V3.66666ZM6 6.72399L6.862 5.86199C7.12267 5.60199 7.54467 5.60199 7.80467 5.86199C8.06533 6.12266 8.06533 6.54466 7.80467 6.80466L6.94333 7.66666L7.80467 8.52866C8.06533 8.78933 8.06533 9.21133 7.80467 9.47133C7.54467 9.73199 7.12267 9.73199 6.862 9.47133L6 8.60999L5.138 9.47133C4.878 9.73199 4.456 9.73199 4.19533 9.47133C3.93533 9.21133 3.93533 8.78933 4.19533 8.52866L5.05733 7.66666L4.19533 6.80466C3.93533 6.54466 3.93533 6.12266 4.19533 5.86199C4.456 5.60199 4.878 5.60199 5.138 5.86199L6 6.72399ZM6.66667 2.33333V1.99999C6.66667 1.91199 6.632 1.82733 6.56934 1.76466C6.50667 1.70199 6.422 1.66666 6.33333 1.66666C6.11533 1.66666 5.88467 1.66666 5.66667 1.66666C5.57867 1.66666 5.494 1.70199 5.43134 1.76466C5.36867 1.82733 5.33333 1.91199 5.33333 1.99999V2.33333H6.66667Z" fill="#EC5387"/>
</svg>
