<svg width="24" height="24" viewBox="0 0 24 24" fill="none" xmlns="http://www.w3.org/2000/svg">
<path d="M11.9997 0.75C10.8062 0.75 9.6616 1.22411 8.81768 2.06802C7.97377 2.91193 7.49966 4.05653 7.49966 5.25V6H6.87716C6.24575 5.99934 5.63841 6.24222 5.18158 6.6781C4.72475 7.11398 4.45363 7.70925 4.42466 8.34L3.83216 20.6775C3.81698 21.0093 3.86912 21.3407 3.98546 21.6517C4.10179 21.9628 4.27991 22.2471 4.50907 22.4875C4.73824 22.7278 5.0137 22.9193 5.31886 23.0504C5.62402 23.1814 5.95256 23.2493 6.28466 23.25H17.7147C18.0468 23.2493 18.3753 23.1814 18.6805 23.0504C18.9856 22.9193 19.2611 22.7278 19.4903 22.4875C19.7194 22.2471 19.8975 21.9628 20.0139 21.6517C20.1302 21.3407 20.1824 21.0093 20.1672 20.6775L19.5747 8.34C19.5457 7.70925 19.2746 7.11398 18.8178 6.6781C18.3609 6.24222 17.7536 5.99934 17.1222 6H16.4997V5.25C16.4997 4.05653 16.0256 2.91193 15.1816 2.06802C14.3377 1.22411 13.1931 0.75 11.9997 0.75ZM8.99966 5.25C8.99966 4.45435 9.31573 3.69129 9.87834 3.12868C10.441 2.56607 11.204 2.25 11.9997 2.25C12.7953 2.25 13.5584 2.56607 14.121 3.12868C14.6836 3.69129 14.9997 4.45435 14.9997 5.25V6H8.99966V5.25ZM18.0747 8.4075L18.6672 20.7525C18.6719 20.8815 18.6511 21.0102 18.6061 21.1311C18.561 21.2521 18.4926 21.363 18.4047 21.4575C18.3149 21.5497 18.2076 21.623 18.0891 21.6733C17.9707 21.7235 17.8433 21.7496 17.7147 21.75H6.28466C6.15598 21.7496 6.02867 21.7235 5.91019 21.6733C5.79171 21.623 5.68444 21.5497 5.59466 21.4575C5.50674 21.363 5.43831 21.2521 5.39327 21.1311C5.34822 21.0102 5.32746 20.8815 5.33216 20.7525L5.92466 8.4075C5.93624 8.16276 6.04168 7.9319 6.21907 7.76289C6.39646 7.59388 6.63215 7.49973 6.87716 7.5H17.1222C17.3672 7.49973 17.6029 7.59388 17.7803 7.76289C17.9576 7.9319 18.0631 8.16276 18.0747 8.4075Z" fill="white"/>
<path d="M8.51953 9.89233C8.93374 9.89233 9.26953 9.55655 9.26953 9.14233C9.26953 8.72812 8.93374 8.39233 8.51953 8.39233C8.10532 8.39233 7.76953 8.72812 7.76953 9.14233C7.76953 9.55655 8.10532 9.89233 8.51953 9.89233Z" fill="white"/>
<path d="M15.4795 9.89233C15.8937 9.89233 16.2295 9.55655 16.2295 9.14233C16.2295 8.72812 15.8937 8.39233 15.4795 8.39233C15.0653 8.39233 14.7295 8.72812 14.7295 9.14233C14.7295 9.55655 15.0653 9.89233 15.4795 9.89233Z" fill="white"/>
</svg>
