<svg width="30" height="30" viewBox="0 0 30 30" fill="none" xmlns="http://www.w3.org/2000/svg">
<path d="M14.9998 0.9375C13.508 0.9375 12.0773 1.53013 11.0224 2.58502C9.96747 3.63992 9.37483 5.07066 9.37483 6.5625V7.5H8.59671C7.80744 7.49917 7.04827 7.80278 6.47723 8.34762C5.90619 8.89247 5.56729 9.63656 5.53108 10.425L4.79046 25.8469C4.77147 26.2616 4.83666 26.6758 4.98208 27.0647C5.1275 27.4535 5.35014 27.8089 5.6366 28.1093C5.92305 28.4098 6.26738 28.6492 6.64883 28.813C7.03028 28.9768 7.44095 29.0617 7.85608 29.0625H22.1436C22.5587 29.0617 22.9694 28.9768 23.3508 28.813C23.7323 28.6492 24.0766 28.4098 24.3631 28.1093C24.6495 27.8089 24.8722 27.4535 25.0176 27.0647C25.163 26.6758 25.2282 26.2616 25.2092 25.8469L24.4686 10.425C24.4324 9.63656 24.0935 8.89247 23.5224 8.34762C22.9514 7.80278 22.1922 7.49917 21.403 7.5H20.6248V6.5625C20.6248 5.07066 20.0322 3.63992 18.9773 2.58502C17.9224 1.53013 16.4917 0.9375 14.9998 0.9375ZM11.2498 6.5625C11.2498 5.56794 11.6449 4.61411 12.3482 3.91085C13.0514 3.20759 14.0053 2.8125 14.9998 2.8125C15.9944 2.8125 16.9482 3.20759 17.6515 3.91085C18.3547 4.61411 18.7498 5.56794 18.7498 6.5625V7.5H11.2498V6.5625ZM22.5936 10.5094L23.3342 25.9406C23.3401 26.1019 23.3141 26.2627 23.2578 26.4139C23.2015 26.5651 23.116 26.7037 23.0061 26.8219C22.8939 26.9371 22.7598 27.0288 22.6117 27.0916C22.4636 27.1544 22.3044 27.187 22.1436 27.1875H7.85608C7.69523 27.187 7.53609 27.1544 7.38799 27.0916C7.23989 27.0288 7.10581 26.9371 6.99358 26.8219C6.88368 26.7037 6.79814 26.5651 6.74184 26.4139C6.68554 26.2627 6.65958 26.1019 6.66546 25.9406L7.40608 10.5094C7.42055 10.2035 7.55235 9.91487 7.77409 9.70361C7.99583 9.49235 8.29044 9.37466 8.59671 9.375H21.403C21.7092 9.37466 22.0038 9.49235 22.2256 9.70361C22.4473 9.91487 22.5791 10.2035 22.5936 10.5094Z" fill="white"/>
<path d="M10.6498 12.3656C11.1676 12.3656 11.5873 11.9459 11.5873 11.4281C11.5873 10.9103 11.1676 10.4906 10.6498 10.4906C10.1321 10.4906 9.71232 10.9103 9.71232 11.4281C9.71232 11.9459 10.1321 12.3656 10.6498 12.3656Z" fill="white"/>
<path d="M19.3499 12.3656C19.8676 12.3656 20.2874 11.9459 20.2874 11.4281C20.2874 10.9103 19.8676 10.4906 19.3499 10.4906C18.8321 10.4906 18.4124 10.9103 18.4124 11.4281C18.4124 11.9459 18.8321 12.3656 19.3499 12.3656Z" fill="white"/>
</svg>
