<svg width="10" height="18" viewBox="0 0 10 18" fill="none" xmlns="http://www.w3.org/2000/svg">
<path d="M2.62828 9.87797C2.56257 9.87797 1.11702 9.87797 0.459949 9.87797C0.109512 9.87797 0 9.74656 0 9.41802C0 8.54193 0 7.64393 0 6.76783C0 6.4174 0.131414 6.30789 0.459949 6.30789H2.62828C2.62828 6.24218 2.62828 4.97184 2.62828 4.38048C2.62828 3.50438 2.7816 2.67209 3.21964 1.90551C3.67959 1.11702 4.33666 0.591364 5.16895 0.284731C5.71651 0.0876094 6.26407 0 6.85543 0H9.00186C9.30849 0 9.4399 0.131414 9.4399 0.438048V2.93492C9.4399 3.24155 9.30849 3.37297 9.00186 3.37297C8.41049 3.37297 7.81913 3.37297 7.22777 3.39487C6.63641 3.39487 6.32977 3.6796 6.32977 4.29287C6.30787 4.94994 6.32977 5.58511 6.32977 6.26408H8.87044C9.22088 6.26408 9.35229 6.39549 9.35229 6.74593V9.39612C9.35229 9.74656 9.24278 9.85607 8.87044 9.85607C8.08196 9.85607 6.39548 9.85607 6.32977 9.85607V16.9962C6.32977 17.3686 6.22026 17.5 5.82602 17.5C4.90612 17.5 4.00813 17.5 3.08823 17.5C2.75969 17.5 2.62828 17.3686 2.62828 17.0401C2.62828 14.7403 2.62828 9.94368 2.62828 9.87797Z" fill="white"/>
</svg>
