<svg width="16" height="16" viewBox="0 0 16 16" fill="none" xmlns="http://www.w3.org/2000/svg">
<g clip-path="url(#clip0)">
<path d="M16.0002 0.996799C16.0002 0.512616 15.6077 0.120117 15.1236 0.120117H0.876995C0.696464 0.120117 0.52029 0.175883 0.372635 0.279731C-0.0233981 0.558273 -0.118615 1.10517 0.159927 1.5012L5.32537 8.84498L5.33988 14.1876C5.34078 14.5211 5.43995 14.847 5.62492 15.1245C6.14485 15.9044 7.19861 16.1152 7.97856 15.5952L9.82348 14.3653C10.3137 14.0385 10.607 13.4873 10.6042 12.8982L10.5855 8.87728L15.8376 1.50552C15.9434 1.35696 16.0002 1.17914 16.0002 0.996799ZM8.82955 8.32015L8.85092 12.9063L7.09304 14.0783L7.0773 8.28793L2.56551 1.87348H13.4225L8.82955 8.32015Z" fill="#31304F"/>
</g>
<defs>
<clipPath id="clip0">
<rect width="16" height="16" fill="white"/>
</clipPath>
</defs>
</svg>
