<svg width="26" height="16" viewBox="0 0 26 16" fill="none" xmlns="http://www.w3.org/2000/svg">
<path fill-rule="evenodd" clip-rule="evenodd" d="M23.823 0.122861C22.0235 0.2904 20.7928 0.50005 18.6352 1.0081C10.9707 2.81208 4.84991 6.9607 1.37936 12.7036C0.85679 13.569 -0.0461699 15.2946 0.00183983 15.3376C0.0166121 15.3508 0.455633 14.9994 0.977739 14.557C4.27887 11.7586 8.08779 9.03818 10.4292 7.80609C10.7468 7.639 11.0441 7.47554 11.0893 7.44294C11.2333 7.33925 12.5569 6.78456 13.0273 6.6306C13.5249 6.46759 13.6883 6.47167 13.259 6.63604C11.6354 7.25729 9.20956 8.72484 6.6138 10.6556C4.3495 12.3391 -0.00277544 15.9018 0.0913975 15.9942C0.132021 16.034 0.840635 15.8661 1.865 15.5735C2.23984 15.4667 2.87089 15.2865 3.26836 15.1733C13.0443 12.3835 20.8136 7.71508 23.1633 3.2187C23.7944 2.01061 24.6498 1.05745 25.7646 0.31938C26.3158 -0.0451299 25.988 -0.0786376 23.823 0.122861Z" fill="#8CCC0C"/>
</svg>
