<svg width="15" height="16" viewBox="0 0 15 16" fill="none" xmlns="http://www.w3.org/2000/svg">
<path d="M11.8669 16H2.61436C1.17268 16 1.07602e-06 14.8273 1.07602e-06 13.3856V5.7149C-0.000388772 5.28575 0.10516 4.86313 0.307282 4.48455C0.509403 4.10596 0.801849 3.78313 1.15867 3.54468L5.78493 0.442761C6.21553 0.154115 6.72222 0 7.24062 0C7.75901 0 8.26571 0.154115 8.69631 0.442761L13.3226 3.54468C13.6794 3.78313 13.9718 4.10596 14.174 4.48455C14.3761 4.86313 14.4816 5.28575 14.4812 5.7149V13.3856C14.4812 14.8273 13.3086 16 11.8669 16ZM7.24062 1.00178C6.92123 1.0018 6.60908 1.09691 6.34395 1.27498L1.71628 4.3769C1.49641 4.52404 1.31618 4.7231 1.19155 4.95647C1.06692 5.18984 1.00173 5.45034 1.00175 5.7149V13.3856C1.00175 14.2739 1.72469 14.9968 2.61436 14.9968H11.8669C12.7565 14.9968 13.4795 14.2739 13.4795 13.3856V5.7149C13.4795 5.45034 13.4143 5.18984 13.2897 4.95647C13.1651 4.7231 12.9848 4.52404 12.7649 4.3769L8.13729 1.27498C7.87215 1.09691 7.56 1.0018 7.24062 1.00178Z" fill="#525A61"/>
<path d="M9.41136 16H5.07091C4.93789 16 4.81031 15.9472 4.71624 15.8531C4.62218 15.759 4.56934 15.6315 4.56934 15.4984V10.4911C4.56934 10.4253 4.58232 10.3601 4.60754 10.2994C4.63277 10.2386 4.66973 10.1834 4.71633 10.1369C4.76292 10.0904 4.81823 10.0536 4.87907 10.0286C4.93992 10.0035 5.00511 9.99072 5.07091 9.99091H9.41136C9.47716 9.99072 9.54235 10.0035 9.6032 10.0286C9.66404 10.0536 9.71935 10.0904 9.76594 10.1369C9.81254 10.1834 9.8495 10.2386 9.87473 10.2994C9.89995 10.3601 9.91293 10.4253 9.91293 10.4911V15.4984C9.91293 15.6315 9.86009 15.759 9.76603 15.8531C9.67196 15.9472 9.54439 16 9.41136 16ZM5.57109 14.9969H8.91118V10.9927H5.57109V14.9969Z" fill="#525A61"/>
</svg>
