<svg width="32" height="32" viewBox="0 0 32 32" fill="none" xmlns="http://www.w3.org/2000/svg">
<path d="M18.1378 22.5454C17.8107 22.5759 17.4823 22.502 17.1997 22.3344C16.9932 22.1224 16.8942 21.8281 16.9306 21.5344C16.9382 21.2899 16.9674 21.0465 17.0178 20.8072C17.0667 20.5325 17.1297 20.2607 17.2069 19.9926L18.0651 17.0399C18.1536 16.7484 18.2121 16.4487 18.2397 16.1453C18.2397 15.818 18.2833 15.5925 18.2833 15.4617C18.3015 14.8784 18.0525 14.3186 17.6069 13.9417C17.0588 13.5209 16.3763 13.3141 15.6869 13.3599C15.1928 13.3673 14.7026 13.4482 14.2323 13.5999C13.7184 13.7599 13.1778 13.9514 12.6105 14.1744L12.3633 15.1344C12.5305 15.0762 12.7342 15.0108 12.9669 14.938C13.1889 14.8723 13.419 14.838 13.6505 14.8362C13.9753 14.801 14.3022 14.8808 14.5742 15.0617C14.7589 15.2821 14.8456 15.5685 14.8142 15.8544C14.8133 16.099 14.7865 16.3428 14.7342 16.5817C14.6832 16.8362 14.6178 17.1053 14.5378 17.3889L13.6723 20.3562C13.6026 20.632 13.5468 20.9111 13.5051 21.1925C13.4711 21.4335 13.4541 21.6765 13.4542 21.9198C13.4506 22.5071 13.7192 23.063 14.1814 23.4252C14.7379 23.8525 15.4302 24.0644 16.1305 24.0216C16.6236 24.0317 17.115 23.9605 17.585 23.8107C17.9972 23.67 18.5475 23.4689 19.236 23.207L19.4687 22.2907C19.2822 22.368 19.0902 22.4312 18.8942 22.4797C18.6463 22.5364 18.3918 22.5584 18.1378 22.5454Z" fill="white"/>
<path d="M19.0469 8.54549C18.6511 8.18199 18.1296 7.98643 17.5923 8.00006C17.0554 7.98793 16.5344 8.18331 16.1378 8.54549C15.4108 9.17237 15.3296 10.2699 15.9565 10.997C16.0124 11.0618 16.073 11.1224 16.1378 11.1782C16.966 11.9191 18.2187 11.9191 19.0468 11.1782C19.7738 10.5452 19.85 9.44268 19.217 8.71568C19.1643 8.65512 19.1075 8.59824 19.0469 8.54549Z" fill="white"/>
<path d="M16 0C7.16344 0 0 7.16344 0 16C0 24.8366 7.16344 32 16 32C24.8366 32 32 24.8366 32 16C32 7.16344 24.8366 0 16 0ZM16 30.5454C7.96675 30.5454 1.45456 24.0332 1.45456 16C1.45456 7.96675 7.96675 1.45456 16 1.45456C24.0332 1.45456 30.5454 7.96675 30.5454 16C30.5454 24.0332 24.0332 30.5454 16 30.5454Z" fill="white"/>
</svg>
