<svg width="12" height="12" viewBox="0 0 12 12" fill="none" xmlns="http://www.w3.org/2000/svg">
<g clip-path="url(#clip0)">
<path d="M8.95253 0.191808L9.34834 0.584884C9.47195 0.708592 9.54004 0.873178 9.54004 1.04908C9.54004 1.22489 9.47195 1.38967 9.34834 1.51338L4.8642 5.99732L9.35331 10.4864C9.47692 10.6099 9.54492 10.7747 9.54492 10.9505C9.54492 11.1263 9.47692 11.2912 9.35331 11.4148L8.95994 11.808C8.70413 12.064 8.28745 12.064 8.03164 11.808L2.6676 6.46317C2.54408 6.33966 2.45706 6.17507 2.45706 5.99771L2.45706 5.99566C2.45706 5.81975 2.54418 5.65517 2.6676 5.53165L8.0171 0.191808C8.14062 0.068099 8.31018 0.000195449 8.48599 9.07387e-07C8.66189 9.15076e-07 8.82911 0.068099 8.95253 0.191808Z" fill="#76797A"/>
</g>
<defs>
<clipPath id="clip0">
<rect width="12" height="12" fill="white" transform="matrix(4.37114e-08 -1 -1 -4.37114e-08 12 12)"/>
</clipPath>
</defs>
</svg>
