<svg width="220" height="99" viewBox="0 0 220 99" fill="none" xmlns="http://www.w3.org/2000/svg">
<path fill-rule="evenodd" clip-rule="evenodd" d="M120.094 0.0517212C117.618 0.574616 115.887 1.66659 115.64 2.86139C115.58 3.14621 115.439 3.79941 115.325 4.31351C115.087 5.38624 114.974 5.93553 114.554 8.0491C114.387 8.88761 114.205 9.79429 114.148 10.0648C113.964 10.9412 113.505 13.3842 113.111 15.5709C112.95 16.466 112.72 17.8373 112.525 19.0607C112.452 19.5204 112.296 20.4936 112.179 21.2238C112.063 21.9539 111.906 22.9937 111.831 23.5342C111.756 24.0752 111.627 25.0039 111.544 25.5988C111.126 28.5982 110.666 32.7511 110.454 35.4305C110.179 38.9203 110.122 39.9496 110.019 43.2975C109.864 48.3384 110.068 50.9645 110.868 54.2585C112.244 59.9274 114.104 61.8309 118.262 61.8281C121.833 61.8259 124.527 60.6059 127.48 57.6543C129.58 55.555 128.864 54.7671 126.043 56.0724C122.713 57.6131 122.268 57.7495 120.586 57.7462C117.94 57.7412 117.031 56.547 116.175 51.9481C115.526 48.4622 115.718 40.9404 116.698 31.4485C117.042 28.1083 117.633 23.3582 118.078 20.3391C118.194 19.555 118.35 18.4933 118.426 17.9792C118.562 17.0494 118.846 15.1893 119.11 13.5057C119.365 11.8754 120.234 6.72785 120.337 6.23024C120.444 5.71615 120.902 3.19514 121.237 1.27126C121.345 0.652693 121.455 0.111104 121.482 0.0671166C121.532 -0.0131596 120.458 -0.025256 120.094 0.0517212ZM13.8136 0.644996C7.05829 1.08652 1.61105 2.08832 0.565256 3.08133C0.0857982 3.53714 0.164975 3.66855 1.87277 5.24713C2.80474 6.10928 3.52723 7.10393 4.56037 8.94754L4.74567 9.27854L4.9964 8.23385L5.24657 7.18916L5.89208 7.07589C11.6445 6.06804 22.2596 5.70625 29.1507 6.28303C31.3616 6.46832 33.5896 6.75094 36.8688 7.26174C38.2038 7.47013 39.623 7.65652 41.4385 7.86271C42.6768 8.00347 44.5033 7.94079 44.8112 7.74779C45.2093 7.49762 45.0438 7.25624 43.9969 6.5596C41.0811 4.61922 37.1421 3.30236 30.3802 2.00749C29.3795 1.8156 28.3397 1.61546 28.0698 1.56267C26.6996 1.2938 22.8777 0.811596 21.0401 0.675787C19.836 0.586713 15.0166 0.566369 13.8136 0.644996ZM56.2374 1.07167C54.9425 1.22397 53.7725 1.68694 52.6568 2.4875C51.5841 3.25727 51.5583 3.30401 51.3779 4.75558C51.2905 5.45882 51.1761 6.34351 51.1228 6.72235C51.07 7.10064 50.9622 7.98532 50.8836 8.68857C50.8044 9.39126 50.6488 10.6966 50.5372 11.589C50.4262 12.4808 50.2706 13.7641 50.1925 14.4399C50.0622 15.5687 49.9357 16.6469 49.6569 19.0118C49.4584 20.6959 49.3463 21.6741 49.1511 23.4358C49.0433 24.4095 48.8905 25.7808 48.8113 26.4841C48.4083 30.0816 48.0454 33.5423 47.8331 35.8241C47.7523 36.689 47.6638 37.5297 47.6368 37.6919C47.6093 37.8541 47.5203 38.7834 47.4389 39.7566C47.357 40.7298 47.2492 41.9686 47.1992 42.5096C47.1491 43.0501 47.0809 43.8908 47.048 44.3774C47.0155 44.864 46.9479 45.7712 46.8979 46.3931C46.2848 54.0683 46.4932 57.2722 47.7528 59.5271C48.7744 61.3547 51.4016 62.1839 53.1753 61.2387C54.8831 60.3282 57.7885 56.547 58.9921 53.6686C60.8093 49.3204 62.3994 46.9039 63.9373 46.1517C66.174 45.057 67.4497 47.5346 69.2262 56.421C69.6996 58.787 70.6668 61.749 71.1567 62.3312C72.5604 64 72.9843 58.6292 72.065 50.8171C71.4107 45.2621 69.9349 42.1445 67.3578 40.8755C62.632 38.5491 57.0182 43.5252 52.289 54.2332C51.8667 55.19 51.6688 55.4297 51.7705 54.8612C51.7964 54.7188 51.881 53.9165 51.9591 53.0786C52.1724 50.7995 52.3913 48.6485 52.4496 48.2609C52.4781 48.0718 52.5452 47.4081 52.5991 46.7862C52.653 46.1644 52.7421 45.2797 52.7971 44.82C52.8916 44.0343 53.017 42.8219 53.3408 39.5597C53.4162 38.8032 53.569 37.2988 53.6806 36.2173C53.7923 35.1357 53.9468 33.6314 54.0243 32.8743C54.1018 32.1171 54.2569 30.6133 54.369 29.5318C54.4812 28.4503 54.6363 26.9459 54.7138 26.1888C54.7913 25.4317 54.9464 23.9273 55.0585 22.8463C55.1707 21.7648 55.3252 20.2604 55.4011 19.5033C55.477 18.7462 55.6941 16.6227 55.8833 14.7841C56.073 12.9454 56.2946 10.7774 56.3765 9.96639C56.4584 9.15538 56.5717 8.07165 56.6278 7.55755C56.6833 7.044 56.7988 5.93828 56.8829 5.09978C56.9676 4.26183 57.077 3.20009 57.127 2.74043C57.1765 2.28076 57.2178 1.69464 57.2188 1.43731C57.2205 0.914966 57.3035 0.946307 56.2374 1.07167ZM22.6621 6.5431C22.5538 6.57004 22.0012 6.81802 21.4338 7.09404C18.331 8.60499 17.5745 10.7994 16.9554 20.0883C15.8799 36.2233 16.1883 50.5664 17.7114 55.2416C18.8221 58.6517 21.9006 61.5626 24.3963 61.5626C25.6598 61.5626 25.7 61.1722 24.5547 60.0313C22.4378 57.9227 21.883 53.0648 22.3179 40.445C22.3718 38.8768 22.4609 36.2662 22.5159 34.6442C22.5703 33.0216 22.6588 30.9427 22.7122 30.0234C22.7655 29.104 22.8546 27.5557 22.9106 26.5819C22.9662 25.6087 23.0992 23.6177 23.2059 22.1579C23.3126 20.6981 23.4434 18.7957 23.4973 17.9302C23.5507 17.0648 23.6386 15.8925 23.6925 15.3251C23.7469 14.7571 23.8366 13.5623 23.8927 12.6705C23.9487 11.7781 24.0378 10.6278 24.0906 10.1143C24.4265 6.86146 24.1522 6.17581 22.6621 6.5431ZM163.633 30.7502C162.824 30.9592 162.181 31.6228 161.9 32.5378C161.705 33.1728 161.626 33.7749 161.1 38.5964C160.59 43.2728 160.525 54.4928 160.99 57.5262C161.288 59.4743 162.115 60.199 163.752 59.9466C166.327 59.5502 168.728 56.7477 171.024 51.4566C174.298 43.9106 176.974 41.6662 179.563 44.2916C180.492 45.2346 180.91 46.5465 181.155 49.2902C181.425 52.311 181.487 53.4805 181.549 56.7163C181.623 60.6735 181.716 61.0947 182.614 61.529C184.062 62.2301 184.925 60.8863 185.328 57.3063C185.386 56.7922 185.482 55.9295 185.542 55.389C185.696 53.9935 185.7 48.7904 185.548 47.8678C185.481 47.462 185.381 46.8209 185.326 46.442C184.522 40.9057 181.921 38.0928 177.61 38.0944C175.883 38.095 174.658 38.5431 173.156 39.723C171.444 41.0685 169.281 43.9249 168.503 45.8664C167.399 48.6249 166.329 50.6302 166.089 50.3904C166.02 50.3212 166.213 45.4298 166.359 43.5417C166.704 39.0858 166.74 38.6811 167.236 33.6726C167.448 31.5283 165.799 30.1905 163.633 30.7502ZM93.1551 31.5409C85.0511 32.5444 79.4543 37.3851 77.8581 44.7705C75.7154 54.6852 81.1824 61.9095 90.7958 61.8677C93.4592 61.8556 95.6767 61.4883 97.7759 60.7103C100.348 59.758 103.553 57.3756 105.002 55.3401C106.468 53.2798 106.339 52.5837 104.71 53.7763C100.287 57.0171 93.5983 58.6666 89.5669 57.5114C83.5946 55.8003 81.4265 50.4388 83.7386 43.0996C85.243 38.3248 90.1657 34.2719 94.4824 34.2549C96.3513 34.2478 96.9781 34.7404 96.9787 36.2173C96.9798 38.4315 94.7623 40.9173 90.7958 43.1491C84.079 46.9287 81.785 48.7525 83.7496 48.7525C84.653 48.7525 87.7827 48.0745 89.3211 47.545C95.2901 45.4914 99.746 42.1687 101.216 38.675C103.294 33.7337 99.8769 30.7085 93.1551 31.5409ZM144.673 31.5107C137.545 32.2266 131.745 36.567 129.738 42.6883C127.928 48.207 128.567 53.7235 131.438 57.3552C136.459 63.7102 148.945 63.3308 155.265 56.6316C157.504 54.2585 158.023 52.3171 156.027 53.7807C151.763 56.9082 145.154 58.6077 141.205 57.5911C135.43 56.1043 133.113 51.627 134.598 44.82C135.854 39.0544 140.53 34.5403 145.558 34.2368C147.612 34.113 148.332 34.7041 148.241 36.4389C148.123 38.6849 146.041 40.9074 141.773 43.3432C135.096 47.153 133.233 48.6403 135.02 48.7332C135.855 48.7767 138.981 48.1163 140.642 47.5456C146.698 45.4661 151.148 42.0945 152.589 38.4925C154.51 33.6886 151.288 30.8459 144.673 31.5107ZM207.105 31.5409C198.914 32.5554 193.322 37.4676 191.765 45.0163C189.372 56.6102 197.653 64.1518 209.678 61.33C213.41 60.4547 217.109 57.9958 219.19 55.008C220.468 53.1743 220.205 52.6459 218.602 53.8209C217.341 54.7446 215.909 55.5397 214.184 56.2731C207.493 59.1163 200.957 58.0689 198.1 53.6944C195.947 50.3981 196.549 43.8595 199.385 39.717C203.172 34.1895 211.785 32.0088 210.899 36.8023C210.461 39.1743 208.635 40.8782 203.025 44.1558C201.591 44.9927 200.198 45.8235 199.927 46.0016C197.381 47.6808 196.996 48.0041 197.044 48.4248C197.102 48.9251 197.863 48.8696 201.346 48.1097C202.709 47.8128 204.859 47.0282 206.726 46.1468C215.905 41.8146 218.897 33.9536 212.217 31.7229C211.57 31.5068 208.316 31.3908 207.105 31.5409ZM171.726 82.0083C171.824 82.5037 171.796 84.0526 171.688 84.1559C171.597 84.2428 170.22 84.4094 168.835 84.5012L167.827 84.5683V83.6715C167.827 82.6015 167.759 82.5235 166.734 82.419C165.923 82.336 165.851 82.4262 166.233 83.0469C166.576 83.6039 166.875 84.5485 166.748 84.675C166.7 84.7234 165.843 84.785 164.843 84.8124C162.504 84.8768 162.287 85.0192 163.543 85.6652L164.106 85.955L165.535 85.7334C167.146 85.4838 167.022 85.4519 167.285 86.1865C167.609 87.0871 167.925 86.8848 167.925 85.7774V85.2578L168.933 85.1929C169.487 85.1572 170.285 85.1 170.706 85.0654L171.472 85.0027L171.404 85.4349C171.367 85.6729 171.277 86.0386 171.204 86.2481C171.031 86.7451 171.036 86.8012 171.253 86.8012C171.514 86.8012 171.706 86.5499 172.091 85.7059C172.509 84.7877 172.371 84.835 174.649 84.835C177.085 84.835 177.514 84.5975 176.238 83.9575L175.763 83.7194L174.523 83.886C172.844 84.112 172.713 84.1076 172.793 83.8271C172.907 83.4296 173.272 82.5273 173.375 82.3899C173.574 82.121 172.604 81.5904 171.912 81.5904C171.649 81.5904 171.645 81.5986 171.726 82.0083ZM73.6876 84.2698C73.6584 84.3913 73.6463 86.7248 73.6612 89.4558L73.6887 94.4209L74.1066 94.4511L74.5244 94.4813V89.265V84.0482H74.1329C73.8085 84.0482 73.7321 84.0861 73.6876 84.2698ZM120.242 89.259V94.4698H120.635H121.028V89.259V84.0482H120.635H120.242V89.259ZM128.893 86.5554V89.0742L128.427 88.6894C125.852 86.5686 122.192 89.0781 123.151 92.3062C123.826 94.5792 126.863 95.3902 128.574 93.7539L128.893 93.4482V93.9645V94.4813L129.311 94.4511L129.729 94.4209V89.259V84.0977L129.311 84.0674L128.893 84.0372V86.5554ZM51.0755 84.4985C49.101 84.9752 48.163 85.6488 47.457 87.0976C45.9945 90.0986 47.5566 93.4982 50.777 94.3202C51.2388 94.4385 52.0031 94.4698 54.3954 94.4698H57.4283L57.3981 94.0519L57.3679 93.634L55.9421 93.5807C55.1581 93.5516 54.5686 93.5186 54.6319 93.507C54.876 93.4636 55.8421 92.4739 56.1175 91.9845C57.4426 89.6318 56.6113 86.2233 54.4422 85.1171C53.4778 84.625 51.8172 84.3198 51.0755 84.4985ZM93.639 84.9087C93.6687 85.0032 93.849 85.6229 94.0387 86.2849C94.5094 87.9262 95.8653 92.586 96.2766 93.9782L96.4074 94.4209L96.9704 94.4505C97.3669 94.4709 97.5445 94.4423 97.5731 94.3521C97.5956 94.2817 97.7056 93.9035 97.8177 93.5114C97.9299 93.1194 98.1086 92.4997 98.2147 92.1352C98.3203 91.7701 98.7206 90.3433 99.1044 88.9643C100.086 85.4305 99.9308 85.5349 100.615 87.9542C101.217 90.0843 101.371 90.6198 101.602 91.3973C101.678 91.6546 101.906 92.4508 102.109 93.1672L102.477 94.4698H103.036H103.595L103.917 93.3641C104.094 92.7554 104.321 91.9922 104.42 91.6678C104.589 91.1191 104.805 90.3768 105.944 86.4262C106.474 84.592 106.476 84.7195 105.92 84.7558C105.528 84.7811 105.449 84.8218 105.385 85.0313C105.344 85.1665 105.06 86.1843 104.754 87.2928C104.448 88.4012 104.052 89.8171 103.875 90.4389C103.698 91.0608 103.451 91.935 103.325 92.3815C103.053 93.352 103.037 93.3426 102.661 91.9631C102.498 91.3682 102.115 90.0189 101.808 88.9643C101.262 87.0794 101.154 86.7006 100.802 85.425L100.625 84.7855L100.028 84.7569L99.4299 84.7278L99.2066 85.4942C98.9663 86.3201 98.7899 86.9238 98.5727 87.6617C98.4973 87.9185 98.1135 89.2711 97.7204 90.6671C97.3097 92.1258 96.9748 93.1507 96.9336 93.076C96.8935 93.0045 96.7181 92.437 96.5438 91.8152C96.3689 91.1933 96.1171 90.3086 95.9846 89.849C95.7602 89.0726 95.465 88.0174 94.8343 85.7373C94.6952 85.2331 94.5808 84.802 94.5808 84.7789C94.5808 84.7553 94.3565 84.7366 94.0827 84.7366C93.6533 84.7366 93.5922 84.7602 93.639 84.9087ZM134.4 85.1275V85.5184L136.046 85.5454L137.693 85.5723L137.718 90.0211L137.744 94.4698H138.185H138.625L138.65 90.0211L138.676 85.5723L140.323 85.5454L141.97 85.5184V85.1275V84.7366H138.185H134.4V85.1275ZM77.179 85.0027C76.7777 85.1429 76.6512 85.7642 76.9652 86.0485C77.3748 86.4191 77.9653 86.126 77.9653 85.552C77.9653 85.1467 77.565 84.8669 77.179 85.0027ZM53.6306 85.7048C56.8312 87.2026 56.4771 92.4717 53.1094 93.4509C49.9544 94.3681 47.0925 91.361 48.0349 88.1186C48.7145 85.7807 51.357 84.6409 53.6306 85.7048ZM168.835 85.9814C168.767 86.0089 168.712 86.1491 168.711 86.2932C168.706 87.8129 165.422 91.1576 161.977 93.1529L161.486 93.4378L161.906 93.468C163.118 93.5554 166.23 91.4792 168.22 89.254C168.626 88.801 169.094 88.2786 169.26 88.0933L169.562 87.7568L170.538 88.5766C171.075 89.0275 172.038 89.8633 172.678 90.434C175.205 92.6856 175.312 92.7312 177.442 92.4667C179.387 92.2254 179.588 91.9955 178.093 91.7244C176.471 91.4303 174.124 90.3691 172.251 89.083C171.575 88.6184 170.766 88.0625 170.452 87.847C169.737 87.356 169.736 87.3543 170 86.9843C170.271 86.6033 170.192 86.4416 169.59 86.1414C169.14 85.9176 169.044 85.8973 168.835 85.9814ZM80.6199 87.1394V88.0796H79.9315H79.2437V88.4727V88.8659H79.9315H80.6199V91.1796C80.6199 94.2515 80.7689 94.5699 82.2046 94.5671C83.1734 94.5649 83.2745 94.5165 83.2745 94.0574V93.6676L82.9551 93.7479C81.5442 94.102 81.4062 93.8633 81.4062 91.0723V88.8659H82.2914H83.1761V88.4766V88.0867L82.3156 88.0587L81.4557 88.0301L81.4062 87.1454L81.3573 86.2607L80.9883 86.2299L80.6199 86.1997V87.1394ZM68.4284 87.9586C67.674 88.0273 66.4622 88.5552 66.4622 88.8158C66.4622 89.1408 66.8311 89.4135 67.0703 89.265C68.7797 88.2022 70.7179 88.7471 70.5744 90.2503L70.5425 90.5863L69.2641 90.6479C66.9631 90.7578 66.1674 91.3033 66.1674 92.7713C66.1674 94.5671 68.7907 95.3 70.2231 93.9046C70.5826 93.5538 70.5914 93.551 70.5931 93.7863C70.5958 94.3422 70.6932 94.4824 71.055 94.4505L71.3948 94.4209L71.3843 92.3562C71.3706 89.458 71.331 89.2359 70.7053 88.5491C70.3336 88.1406 69.3186 87.8772 68.4284 87.9586ZM109.744 87.9911C106.686 88.3869 105.932 92.8054 108.676 94.2526C109.141 94.4978 109.272 94.5193 110.312 94.5193C112.478 94.5193 113.585 93.4257 113.598 91.2747C113.61 89.0385 112.033 87.6952 109.744 87.9911ZM117.882 87.9751C117.357 88.0807 116.938 88.3364 116.634 88.7366L116.358 89.099L116.309 88.614L116.26 88.1285H115.867H115.473V91.2747V94.4209L115.883 94.4505L116.292 94.4802L116.326 92.337C116.363 89.9793 116.391 89.8556 117.015 89.2711C117.335 88.9725 117.926 88.7674 118.466 88.7674C118.751 88.7674 118.767 88.7471 118.767 88.3743C118.767 88.1005 118.725 87.9812 118.627 87.9812C118.551 87.9812 118.429 87.9641 118.357 87.9432C118.285 87.9229 118.071 87.9372 117.882 87.9751ZM143.985 87.9911C141.01 88.4067 140.293 92.6955 142.938 94.2504C144.002 94.8761 146.06 94.5864 146.932 93.689L147.322 93.2865L147.059 93.0424C146.723 92.7312 146.738 92.7285 146.24 93.187C144.804 94.5116 142.565 93.7907 142.213 91.8905L142.145 91.5238L144.785 91.4974L147.426 91.4715L147.455 90.9217C147.553 89.0748 145.945 87.7167 143.985 87.9911ZM151.31 87.9603C150.581 88.0224 149.342 88.5629 149.348 88.8169C149.356 89.215 149.776 89.4118 150.115 89.1754C151.505 88.2066 153.338 88.7141 153.452 90.1008L153.495 90.6121L152.181 90.6567C149.97 90.732 149.035 91.3363 149.022 92.6993C149.005 94.615 151.886 95.3556 153.242 93.7836L153.454 93.5384L153.523 94.0041C153.592 94.4632 153.599 94.4698 153.958 94.4698H154.322L154.284 92.2825C154.241 89.8121 154.165 89.1925 153.849 88.7658C153.438 88.2104 152.367 87.8701 151.31 87.9603ZM58.7655 88.1401C58.6512 88.2544 58.6853 92.3232 58.8057 92.922C59.1576 94.6743 61.6098 95.2137 62.9509 93.8331L63.3066 93.4663L63.3732 93.9683L63.4397 94.4698H63.835H64.2309L64.1666 93.4224C64.1314 92.8461 64.1028 91.4083 64.1028 90.2272V88.0796H63.7091H63.316V89.9441C63.316 92.8951 62.8068 93.8122 61.1595 93.8254C59.7893 93.8369 59.6436 93.5279 59.5798 90.4879L59.5309 88.1285L59.1834 88.0994C58.9921 88.0829 58.804 88.1016 58.7655 88.1401ZM77.0476 88.145C77.0119 88.1807 76.9822 89.6186 76.9822 91.3401V94.4698H77.3753H77.7685V91.2747V88.0796H77.4408C77.261 88.0796 77.0839 88.1087 77.0476 88.145ZM83.892 88.3006C83.9195 88.4221 84.2824 89.3404 84.6975 90.3405C85.1132 91.3412 85.4898 92.2699 85.5355 92.4052C85.5806 92.5404 85.7758 93.027 85.9682 93.4867C86.3976 94.5105 86.3971 94.428 85.9764 95.4991C85.5041 96.7027 85.2578 96.9474 84.5529 96.9149L84.0119 96.8896V97.2773V97.6654L84.5029 97.6962C85.8027 97.7782 86.0727 97.5087 86.959 95.2423C87.3257 94.3037 87.6831 93.4031 87.7535 93.2409C87.8239 93.0787 88.1131 92.3485 88.3968 91.6189C88.6805 90.8887 89.0979 89.827 89.325 89.259C89.7769 88.1263 89.7698 88.0515 89.2117 88.0972L88.8307 88.1285L88.3303 89.4558C88.0554 90.186 87.7843 90.8936 87.7277 91.0289C87.6716 91.1642 87.5132 91.5842 87.3758 91.9631C87.2378 92.3414 87.0591 92.806 86.9771 92.9951L86.8292 93.3393L86.617 92.8478C86.5004 92.5772 86.2497 91.9581 86.0606 91.4715C85.8709 90.9844 85.5206 90.0953 85.282 89.4954C85.0428 88.8955 84.8476 88.3578 84.8476 88.3017C84.8476 88.161 84.6046 88.0796 84.1889 88.0796C83.8794 88.0796 83.8469 88.1032 83.892 88.3006ZM111.118 88.8219C112.43 89.2689 113.116 90.7133 112.68 92.1121C111.914 94.5721 108.408 94.3758 107.903 91.8443C107.497 89.8132 109.235 88.1802 111.118 88.8219ZM127.439 88.95C129.978 90.1794 129.157 93.8094 126.337 93.8243C124.772 93.8325 123.793 92.74 123.9 91.1037C124.024 89.2012 125.767 88.1406 127.439 88.95ZM145.411 88.9439C146.026 89.2518 146.591 89.9732 146.591 90.4499V90.7337H144.379C141.941 90.7337 142.044 90.7666 142.351 90.092C142.9 88.8823 144.266 88.3699 145.411 88.9439ZM168.886 89.4734C168.865 89.5378 168.945 89.8363 169.064 90.1371C169.425 91.0493 169.47 91.7932 169.172 91.907C168.989 91.9763 166.436 92.2089 165.853 92.2089C165.629 92.2089 165.796 92.5223 166.131 92.7318C166.677 93.0738 166.883 93.0979 167.917 92.9418C168.436 92.8637 168.981 92.7994 169.129 92.7994L169.4 92.7983V94.3257C169.4 96.5366 169.259 96.7654 168.108 96.4206C167.532 96.248 167.541 96.3854 168.144 96.9534C168.444 97.2366 168.785 97.6566 168.9 97.8865C169.143 98.3725 169.273 98.3989 169.692 98.0459C170.384 97.4631 170.436 97.2289 170.403 94.7986L170.374 92.6207L170.748 92.5663C170.953 92.536 171.674 92.4843 172.35 92.4513C174.135 92.3639 174.38 92.1902 173.469 91.6563L173.015 91.3901L172.005 91.5535C171.45 91.6436 170.854 91.7173 170.682 91.7173H170.368L170.436 90.749C170.514 89.6505 170.573 89.7384 169.597 89.4976C168.926 89.3321 168.933 89.3327 168.886 89.4734ZM70.5656 91.9092C70.3996 93.7412 67.8632 94.6655 67.0928 93.1749C66.5265 92.0802 67.5135 91.3544 69.5973 91.3341L70.6189 91.3236L70.5656 91.9092ZM153.448 91.9658C153.281 94.0503 149.849 94.7051 149.893 92.6443C149.914 91.7256 150.651 91.3517 152.478 91.3341L153.5 91.3236L153.448 91.9658ZM165.762 94.6848C164.651 95.8768 164.371 96.5482 164.827 96.927C165.422 97.4202 166.713 95.4925 166.628 94.2383L166.598 93.7885L165.762 94.6848ZM171.66 94.1872C171.656 94.5567 174.443 96.9858 174.741 96.872C175.18 96.7032 175.051 95.6036 174.533 95.112C173.92 94.5292 171.664 93.8034 171.66 94.1872Z" fill="#31304F"/>
<path fill-rule="evenodd" clip-rule="evenodd" d="M106.257 12.0378C104.114 12.2412 102.648 12.4958 100.078 13.1127C90.9492 15.3033 83.6589 20.3409 79.5252 27.3145C78.9028 28.3652 77.8273 30.4607 77.8845 30.5129C77.9021 30.5288 78.425 30.1022 79.0468 29.565C82.9787 26.167 87.5154 22.8635 90.3042 21.3674C90.6825 21.1646 91.0366 20.9661 91.0905 20.9265C91.262 20.8006 92.8384 20.127 93.3987 19.9401C93.9914 19.7421 94.186 19.7471 93.6747 19.9467C91.7409 20.701 88.8515 22.4831 85.7598 24.8276C83.0628 26.8719 77.879 31.198 77.9911 31.3102C78.0395 31.3585 78.8835 31.1545 80.1036 30.7994C80.5501 30.6696 81.3017 30.4508 81.7751 30.3133C93.419 26.9257 102.673 21.2569 105.471 15.797C106.223 14.3301 107.242 13.1727 108.57 12.2764C109.226 11.8338 108.836 11.7931 106.257 12.0378ZM0 73.5772V74.7077H109.82H219.64V73.5772V72.4468H109.82H0V73.5772Z" fill="#8CCC0C"/>
</svg>
