<svg width="17" height="21" viewBox="0 0 17 21" fill="none" xmlns="http://www.w3.org/2000/svg">
<path d="M8.125 9.21428C8.99029 9.21428 9.83616 8.95246 10.5556 8.46191C11.2751 7.97137 11.8358 7.27415 12.167 6.4584C12.4981 5.64266 12.5847 4.74504 12.4159 3.87906C12.2471 3.01307 11.8304 2.21761 11.2186 1.59327C10.6067 0.968925 9.82719 0.543743 8.97852 0.371488C8.12986 0.199232 7.25019 0.28764 6.45076 0.625531C5.65133 0.963423 4.96805 1.53562 4.48732 2.26977C4.00659 3.00392 3.75 3.86704 3.75 4.74999C3.75 5.934 4.21094 7.06951 5.03141 7.90672C5.85188 8.74394 6.96468 9.21428 8.125 9.21428ZM8.125 1.56122C8.74307 1.56122 9.34725 1.74824 9.86116 2.09862C10.3751 2.44901 10.7756 2.94703 11.0121 3.5297C11.2486 4.11238 11.3105 4.75353 11.19 5.37209C11.0694 5.99066 10.7717 6.55884 10.3347 7.0048C9.89767 7.45076 9.34085 7.75446 8.73466 7.8775C8.12847 8.00054 7.50013 7.93739 6.92911 7.69604C6.3581 7.45469 5.87004 7.04598 5.52666 6.52158C5.18328 5.99719 5 5.38068 5 4.74999C5 3.90428 5.32924 3.0932 5.91529 2.49519C6.50134 1.89718 7.2962 1.56122 8.125 1.56122Z" fill="white"/>
<path d="M8.125 10.4898C5.97113 10.4932 3.90643 11.3678 2.38341 12.9219C0.860392 14.476 0.00330602 16.5828 0 18.7806C6.63872e-05 19.247 0.041907 19.7124 0.125 20.1709C0.151252 20.3173 0.226856 20.4498 0.338716 20.5453C0.450576 20.6408 0.591648 20.6933 0.7375 20.6939H15.5125C15.6584 20.6933 15.7994 20.6408 15.9113 20.5453C16.0231 20.4498 16.0987 20.3173 16.125 20.1709C16.2081 19.7124 16.2499 19.247 16.25 18.7806C16.2467 16.5828 15.3896 14.476 13.8666 12.9219C12.3436 11.3678 10.2789 10.4932 8.125 10.4898ZM14.975 19.4184H1.225C1.21458 19.2059 1.21458 18.9931 1.225 18.7806C1.225 16.9201 1.94933 15.1357 3.23864 13.8201C4.52795 12.5044 6.27664 11.7653 8.1 11.7653C9.92336 11.7653 11.672 12.5044 12.9614 13.8201C14.2507 15.1357 14.975 16.9201 14.975 18.7806C14.9854 18.9931 14.9854 19.2059 14.975 19.4184Z" fill="white"/>
</svg>
