<svg width="14" height="20" viewBox="0 0 14 20" fill="none" xmlns="http://www.w3.org/2000/svg">
<path d="M7 0C5.97745 0 4.99678 0.406207 4.27373 1.12926C3.55067 1.85231 3.14447 2.83298 3.14447 3.85553V4.49812H2.61112C2.07013 4.49755 1.54977 4.70566 1.15836 5.07911C0.766957 5.45256 0.534666 5.96258 0.509851 6.503L0.00220545 17.0736C-0.0108079 17.3578 0.0338696 17.6418 0.133545 17.9083C0.23322 18.1748 0.385829 18.4184 0.582173 18.6243C0.778517 18.8303 1.01453 18.9944 1.27599 19.1066C1.53744 19.2189 1.81893 19.2771 2.10347 19.2777H11.8965C12.1811 19.2771 12.4626 19.2189 12.724 19.1066C12.9855 18.9944 13.2215 18.8303 13.4178 18.6243C13.6142 18.4184 13.7668 18.1748 13.8665 17.9083C13.9661 17.6418 14.0108 17.3578 13.9978 17.0736L13.4901 6.503C13.4653 5.96258 13.233 5.45256 12.8416 5.07911C12.4502 4.70566 11.9299 4.49755 11.3889 4.49812H10.8555V3.85553C10.8555 2.83298 10.4493 1.85231 9.72627 1.12926C9.00322 0.406207 8.02255 0 7 0V0ZM4.42964 3.85553C4.42964 3.17383 4.70045 2.52005 5.18248 2.03802C5.66452 1.55598 6.3183 1.28518 7 1.28518C7.6817 1.28518 8.33548 1.55598 8.81752 2.03802C9.29955 2.52005 9.57036 3.17383 9.57036 3.85553V4.49812H4.42964V3.85553ZM12.205 6.56083L12.7126 17.1378C12.7166 17.2484 12.6989 17.3586 12.6603 17.4622C12.6217 17.5659 12.563 17.6609 12.4877 17.7419C12.4108 17.8209 12.3189 17.8837 12.2174 17.9268C12.1159 17.9698 12.0068 17.9921 11.8965 17.9925H2.10347C1.99322 17.9921 1.88414 17.9698 1.78263 17.9268C1.68112 17.8837 1.58921 17.8209 1.51229 17.7419C1.43696 17.6609 1.37833 17.5659 1.33973 17.4622C1.30114 17.3586 1.28336 17.2484 1.28738 17.1378L1.79503 6.56083C1.80495 6.35115 1.89529 6.15334 2.04727 6.00854C2.19925 5.86374 2.40119 5.78307 2.61112 5.7833H11.3889C11.5988 5.78307 11.8007 5.86374 11.9527 6.00854C12.1047 6.15334 12.1951 6.35115 12.205 6.56083V6.56083Z" fill="#31304F"/>
<path d="M4.01759 7.83303C4.37248 7.83303 4.66018 7.54533 4.66018 7.19044C4.66018 6.83555 4.37248 6.54785 4.01759 6.54785C3.6627 6.54785 3.375 6.83555 3.375 7.19044C3.375 7.54533 3.6627 7.83303 4.01759 7.83303Z" fill="#31304F"/>
<path d="M9.98243 7.83303C10.3373 7.83303 10.625 7.54533 10.625 7.19044C10.625 6.83555 10.3373 6.54785 9.98243 6.54785C9.62754 6.54785 9.33984 6.83555 9.33984 7.19044C9.33984 7.54533 9.62754 7.83303 9.98243 7.83303Z" fill="#31304F"/>
</svg>
