<svg width="16" height="19" viewBox="0 0 16 19" fill="none" xmlns="http://www.w3.org/2000/svg">
<path d="M15.841 7.161L13.8265 5.14648C13.6145 4.93449 13.2707 4.93449 13.0587 5.14648C12.8467 5.35846 12.8467 5.70223 13.0587 5.91425L14.1465 7.002H11.6932V0.5429C11.6932 0.243074 11.4501 0 11.1503 0H0.5429C0.542357 0 0.541923 7.23867e-05 0.54138 7.23867e-05C0.44735 0.00032574 0.353392 0.0249372 0.269387 0.0739792C0.102572 0.171231 0 0.349772 0 0.5429V14.5469C0 14.7425 0.105286 14.9231 0.275576 15.0194L6.35866 18.4606C6.44165 18.5076 6.5338 18.531 6.62599 18.531C6.72049 18.531 6.81506 18.5063 6.8995 18.4571C7.06632 18.3598 7.16889 18.1812 7.16889 17.9881V15.0897H11.1502C11.4501 15.0897 11.6931 14.8467 11.6931 14.5468V8.08776H14.1464L13.0587 9.17552C12.8466 9.3875 12.8466 9.73127 13.0587 9.94329C13.1647 10.0493 13.3036 10.1023 13.4425 10.1023C13.5814 10.1023 13.7204 10.0493 13.8264 9.94329L15.8409 7.92877C16.053 7.71675 16.053 7.37298 15.841 7.161ZM6.08309 17.0572L1.0858 14.2302V1.47379L6.08309 4.30075V17.0572ZM10.6073 14.0039H7.16889V3.98413C7.16889 3.78847 7.0636 3.60793 6.89331 3.51159L2.6052 1.0858H10.6073V7.00196H9.3406C9.04077 7.00196 8.7977 7.24504 8.7977 7.54486C8.7977 7.84469 9.04077 8.08776 9.3406 8.08776H10.6073V14.0039Z" fill="#D17181"/>
</svg>
