<svg width="42" height="42" viewBox="0 0 42 42" fill="none" xmlns="http://www.w3.org/2000/svg">
<path d="M17.2622 16L15.7565 25.3695H18.1631L19.6678 16H17.2622ZM24.5213 19.8166C23.6803 19.4013 23.1648 19.121 23.1648 18.6962C23.175 18.31 23.6007 17.9144 24.5513 17.9144C25.3332 17.8947 25.9079 18.0785 26.3438 18.2613L26.5622 18.3588L26.8894 16.3984C26.4141 16.2147 25.6604 16.0122 24.7294 16.0122C22.3529 16.0122 20.6794 17.2479 20.669 19.0151C20.6494 20.3192 21.8671 21.0429 22.7784 21.477C23.7094 21.9223 24.0263 22.211 24.0263 22.6067C24.016 23.2142 23.2735 23.4945 22.5807 23.4945C21.6208 23.4945 21.1051 23.3501 20.3223 23.0116L20.0054 22.8673L19.6689 24.9045C20.2342 25.1558 21.2738 25.377 22.353 25.3883C24.8786 25.3883 26.522 24.1714 26.5427 22.288C26.5509 21.2548 25.9088 20.4635 24.5213 19.8166ZM33.0591 16.029H31.1972C30.6235 16.029 30.1875 16.194 29.9391 16.7828L26.3643 25.3695H28.89L29.5856 23.5104H32.4112L32.7722 25.377H34.9997L33.0591 16.029ZM30.286 21.6343C30.3347 21.639 31.2554 18.5996 31.2554 18.5996L31.9885 21.6343C31.9885 21.6343 30.7613 21.6343 30.286 21.6343ZM13.7456 16L11.3878 22.3657L11.1309 21.1103C10.695 19.6618 9.32812 18.0878 7.80273 17.306L9.96182 25.3601H12.5081L16.2919 16.001H13.7456V16Z" fill="#2394BC"/>
<path d="M10.3382 17.2087C10.1544 16.4943 9.56844 16.0125 8.77259 16.0022H5.03846L5 16.1756C7.91288 16.8937 10.3578 19.1033 11.151 21.1818L10.3382 17.2087Z" fill="#EFC75E"/>
</svg>
