<svg width="42" height="42" viewBox="0 0 42 42" fill="none" xmlns="http://www.w3.org/2000/svg">
<path d="M24.4932 20.7492C24.4932 25.5822 20.5779 29.4983 15.7466 29.4983C10.9152 29.4983 7 25.5814 7 20.7492C7 15.917 10.9162 12 15.7466 12C20.577 12 24.4932 15.917 24.4932 20.7492Z" fill="#E2574C"/>
<path d="M26.2501 12C24.2885 12 22.4827 12.6536 21.0233 13.7446L21.0303 13.7455C21.3173 14.0228 21.634 14.218 21.8781 14.5373L20.0583 14.5661C19.7731 14.854 19.5132 15.1672 19.2682 15.4927H22.4774C22.7215 15.7858 22.9472 16.0405 23.152 16.3641H18.6864C18.5228 16.6459 18.3715 16.9355 18.2394 17.2364H23.6604C23.8021 17.5365 23.929 17.7631 24.0366 18.0807H17.9183C17.8212 18.3826 17.7381 18.6914 17.675 19.0064H24.2929C24.3577 19.3091 24.4075 19.589 24.4417 19.8743H17.5438C17.5149 20.1622 17.5 20.4544 17.5 20.7493H24.4915C24.4915 21.059 24.4696 21.3459 24.4381 21.6242H17.5438C17.5735 21.9208 17.6173 22.2122 17.675 22.4992H24.2824C24.2142 22.7826 24.1354 23.0678 24.0365 23.3636H17.8981C17.9908 23.6628 18.1038 23.9532 18.2271 24.2367H23.6604C23.5099 24.5552 23.3393 24.8098 23.1512 25.1081H18.6708C18.8476 25.4143 19.0426 25.7065 19.2543 25.9865L22.4775 26.0346C22.2028 26.3644 21.8502 26.563 21.529 26.8518C21.5465 26.8658 21.0155 26.8501 19.9699 26.8335C21.5605 28.4748 23.7837 29.4984 26.25 29.4984C31.0822 29.4984 34.9992 25.5814 34.9992 20.7493C34.9992 15.9171 31.0831 12 26.2501 12Z" fill="#F4B459"/>
</svg>
