<svg width="64" height="63" viewBox="0 0 64 63" fill="none" xmlns="http://www.w3.org/2000/svg">
<path d="M44.1613 30.1323L44.1446 30.1186L44.1269 30.1064L26.6317 18.1125C26.4837 17.9984 26.3006 17.9276 26.1003 17.9297C25.8914 17.9319 25.7026 18.0131 25.5535 18.1392C25.2694 18.3795 25.1479 18.7569 25.1479 19.0971V43.1036C25.1479 43.4419 25.2684 43.8229 25.5557 44.0632C25.7039 44.1872 25.8914 44.2677 26.0992 44.2704C26.2991 44.2729 26.4827 44.2029 26.6317 44.0881L44.1269 32.0942L44.144 32.0824L44.1601 32.0693C44.4556 31.8284 44.5776 31.4426 44.5776 31.1003C44.5776 30.7564 44.4538 30.3723 44.1613 30.1323ZM27.0694 21.1756L41.8418 31.1003L27.0694 41.025V21.1756Z" fill="white" stroke="white"/>
<path d="M63 31.1C63 47.6971 49.1479 61.2 32 61.2C14.8521 61.2 1 47.6971 1 31.1C1 14.5029 14.8521 1 32 1C49.1479 1 63 14.5029 63 31.1Z" stroke="white" stroke-width="2"/>
</svg>
