<svg width="34" height="36" viewBox="0 0 34 36" fill="none" xmlns="http://www.w3.org/2000/svg">
<path d="M15.5 3.74998C15.5 1.68237 13.8176 0 11.75 0C9.68227 0 7.99998 1.68237 7.99998 3.74998V27.0989C7.04267 28.0803 6.5 29.3928 6.5 30.75C6.5 33.6445 8.85547 36 11.75 36C14.6445 36 17 33.6445 17 30.75C17 29.3928 16.4572 28.0803 15.5 27.0989V3.74998ZM11.75 34.5C9.68234 34.5 7.99998 32.8177 7.99998 30.75C7.99998 29.688 8.44456 28.7022 9.25245 27.9749C9.40995 27.8321 9.50002 27.6299 9.50002 27.4175V3.74998C9.50002 2.50924 10.5093 1.49998 11.75 1.49998C12.9908 1.49998 14 2.50924 14 3.74998V27.4174C14 27.6299 14.0901 27.832 14.2476 27.9748C15.0555 28.7021 15.5001 29.688 15.5001 30.75C15.5 32.8177 13.8176 34.5 11.75 34.5Z" fill="#525A61"/>
<path d="M12.5 28.6381V15.75C12.5 15.3354 12.1646 14.9999 11.75 14.9999C11.3354 14.9999 11 15.3354 11 15.75V28.6381C10.1289 28.9487 9.5 29.7734 9.5 30.7499C9.5 31.9907 10.5093 32.9999 11.75 32.9999C12.9907 32.9999 14 31.9907 14 30.7499C14 29.7734 13.3711 28.9487 12.5 28.6381ZM11.75 31.5C11.3362 31.5 11 31.1638 11 30.7499C11 30.3362 11.3361 29.9999 11.75 29.9999C12.1638 29.9999 12.5 30.3361 12.5 30.7499C12.5 31.1638 12.1639 31.5 11.75 31.5Z" fill="#525A61"/>
<path d="M5.75002 24H1.25002C0.835461 24 0.5 24.3355 0.5 24.75C0.5 25.1646 0.835461 25.5 1.25002 25.5H5.75002C6.16459 25.5 6.50005 25.1646 6.50005 24.75C6.50005 24.3355 6.16459 24 5.75002 24Z" fill="#525A61"/>
<path d="M5.75 21H4.25002C3.83546 21 3.5 21.3355 3.5 21.75C3.5 22.1645 3.83546 22.5 4.25002 22.5H5.75C6.16456 22.5 6.50002 22.1645 6.50002 21.75C6.50002 21.3355 6.16456 21 5.75 21Z" fill="#525A61"/>
<path d="M5.75 18H4.25002C3.83546 18 3.5 18.3355 3.5 18.75C3.5 19.1646 3.83546 19.5 4.25002 19.5H5.75C6.16456 19.5 6.50002 19.1646 6.50002 18.75C6.50002 18.3355 6.16456 18 5.75 18Z" fill="#525A61"/>
<path d="M1.25002 16.5H5.75002C6.16459 16.5 6.50005 16.1645 6.50005 15.75C6.50005 15.3354 6.16459 14.9999 5.75002 14.9999H1.25002C0.835461 14.9999 0.5 15.3354 0.5 15.75C0.5 16.1645 0.835461 16.5 1.25002 16.5Z" fill="#525A61"/>
<path d="M1.25002 7.50005H5.75002C6.16459 7.50005 6.50005 7.16459 6.50005 6.75002C6.50005 6.33546 6.16459 6 5.75002 6H1.25002C0.835461 6 0.5 6.33546 0.5 6.75002C0.5 7.16459 0.835461 7.50005 1.25002 7.50005Z" fill="#525A61"/>
<path d="M5.75 12.0001H4.25002C3.83546 12.0001 3.5 12.3355 3.5 12.7501C3.5 13.1646 3.83546 13.5 4.25002 13.5H5.75C6.16456 13.5 6.50002 13.1646 6.50002 12.75C6.50002 12.3355 6.16456 12.0001 5.75 12.0001Z" fill="#525A61"/>
<path d="M5.75 9H4.25002C3.83546 9 3.5 9.33546 3.5 9.75002C3.5 10.1646 3.83546 10.5 4.25002 10.5H5.75C6.16456 10.5 6.50002 10.1646 6.50002 9.75002C6.50002 9.33546 6.16456 9 5.75 9Z" fill="#525A61"/>
<path d="M22.2499 12H23.7499C24.9906 12 25.9999 13.0093 25.9999 14.25C25.9999 14.6646 26.3353 15.0001 26.7499 15.0001C27.1645 15.0001 27.4999 14.6646 27.4999 14.25C27.4999 12.1824 25.8176 10.5001 23.75 10.5001H22.25C20.1824 10.5001 18.5 12.1824 18.5 14.25V20.25C18.5 22.3176 20.1824 24 22.25 24H23.7499C25.8175 24 27.4999 22.3176 27.4999 20.25C27.4999 19.8354 27.1644 19.5 26.7498 19.5C26.3353 19.5 25.9999 19.8354 25.9999 20.25C25.9999 21.4907 24.9906 22.5 23.7499 22.5H22.2499C21.0092 22.5 19.9999 21.4907 19.9999 20.25V14.25C19.9999 13.0093 21.0092 12 22.2499 12Z" fill="#525A61"/>
<path d="M31.25 10.4999C30.0093 10.4999 29 11.5092 29 12.7499C29 13.9907 30.0093 14.9999 31.25 14.9999C32.4907 14.9999 33.5 13.9907 33.5 12.7499C33.5 11.5093 32.4907 10.4999 31.25 10.4999ZM31.25 13.5C30.8362 13.5 30.5 13.1638 30.5 12.7499C30.5 12.3361 30.8361 11.9999 31.25 11.9999C31.6639 11.9999 32 12.3361 32 12.7499C32 13.1638 31.6638 13.5 31.25 13.5Z" fill="#525A61"/>
</svg>
