<svg width="36" height="36" viewBox="0 0 36 36" fill="none" xmlns="http://www.w3.org/2000/svg">
<g clip-path="url(#clip0)">
<path d="M31.273 16.6537C31.1027 16.2185 30.6076 16.0032 30.167 16.1735L22.7965 19.0855C22.3514 18.59 21.7009 18.275 20.9855 18.275C19.6395 18.275 18.5435 19.3707 18.5435 20.7167C18.5435 22.0628 19.6395 23.1584 20.9855 23.1584C22.3312 23.1584 23.4272 22.0628 23.4272 20.7167C23.4272 20.7018 23.4272 20.6816 23.4272 20.6667L30.7977 17.7547C31.2329 17.5844 31.4482 17.0889 31.273 16.6537Z" fill="#525A61"/>
<path d="M35.9868 20.0809C35.8516 16.8436 34.706 13.7965 32.6743 11.2746C32.2391 10.7341 31.7738 10.2286 31.2782 9.76328L32.7495 8.00722L34.3357 9.25287C34.4907 9.37313 34.6758 9.43306 34.861 9.43306C35.111 9.43306 35.3615 9.32312 35.5313 9.10781C35.8215 8.73751 35.7566 8.20229 35.3863 7.91216L33.1996 6.19581C33.1897 6.18588 33.1847 6.18092 33.1748 6.17061C33.1496 6.15076 33.1248 6.13053 33.0996 6.11564L30.8579 4.35424C30.4876 4.06411 29.9524 4.12939 29.6619 4.49969C29.3718 4.8696 29.4371 5.4052 29.8074 5.69533L31.4134 6.95626L29.9772 8.66765C28.4361 7.51171 26.685 6.66613 24.7785 6.17061C24.338 6.05571 23.8929 5.96065 23.4474 5.88544V4.43441H24.0631H24.088C25.234 4.39929 26.1296 3.47888 26.1296 2.33286C26.1296 1.17196 25.2038 0.231323 24.0631 0.231323H18.0685C16.9278 0.231323 16.0021 1.17196 16.0021 2.33286C16.0021 3.49377 16.9278 4.43441 18.0685 4.43441H18.6839V5.86063C17.568 6.03547 16.4674 6.33591 15.3966 6.76614C14.9614 6.94137 14.7511 7.4365 14.9263 7.87208C15.1015 8.30727 15.5967 8.51762 16.0319 8.3424C17.1779 7.882 18.3487 7.59187 19.5245 7.45673H19.5348C19.5997 7.45673 19.6646 7.44681 19.7249 7.4365C20.6052 7.35175 21.4859 7.35175 22.3567 7.44184C22.4319 7.4617 22.5117 7.47658 22.5919 7.47658H22.6369C25.0939 7.78199 27.4355 8.77263 29.397 10.3787C29.4371 10.429 29.4821 10.4791 29.5321 10.5241C29.5821 10.5638 29.6371 10.5989 29.6921 10.6291C30.2826 11.1445 30.8381 11.7198 31.3485 12.3504C35.0461 16.9436 35.3114 23.3086 32.0139 28.1969C29.4821 31.9499 25.3538 34.0713 21.0255 34.0713C19.7196 34.0713 18.3937 33.8762 17.0878 33.4758C11.4585 31.7495 7.67569 26.626 7.67569 20.7264C7.67569 20.2561 7.29547 19.8759 6.82515 19.8759C6.35483 19.8759 5.97461 20.2561 5.97461 20.7264C5.97461 23.969 6.99045 27.0612 8.91677 29.6682C10.8431 32.2752 13.4951 34.1564 16.5923 35.107C18.0383 35.5525 19.5195 35.7728 20.9958 35.7728C22.682 35.7728 24.3632 35.4823 25.9895 34.907C29.0416 33.8262 31.6134 31.8396 33.4298 29.1528C35.2362 26.4557 36.1219 23.3235 35.9868 20.0809ZM18.0685 2.72836C17.8734 2.72836 17.7032 2.54321 17.7032 2.3279C17.7032 2.11794 17.8784 1.92744 18.0685 1.92744H24.0631C24.2582 1.92744 24.4281 2.11259 24.4281 2.3279C24.4281 2.53825 24.2533 2.71805 24.0429 2.72836H18.0685ZM20.3853 5.68541V4.42944H21.7413V5.69533C21.2909 5.67052 20.8354 5.67052 20.3853 5.68541Z" fill="#525A61"/>
<path d="M7.72066 11.3896H16.6223C17.0927 11.3896 17.4729 11.0093 17.4729 10.539C17.4729 10.0687 17.0927 9.68848 16.6223 9.68848H7.72066C7.25034 9.68848 6.87012 10.0687 6.87012 10.539C6.87012 11.0093 7.25034 11.3896 7.72066 11.3896Z" fill="#525A61"/>
<path d="M4.20796 14.9773H16.6271C17.0974 14.9773 17.4776 14.5971 17.4776 14.1267C17.4776 13.6564 17.0974 13.2762 16.6271 13.2762H4.20796C3.73765 13.2762 3.35742 13.6564 3.35742 14.1267C3.35742 14.5921 3.73765 14.9773 4.20796 14.9773Z" fill="#525A61"/>
<path d="M17.4728 17.6844C17.4728 17.2141 17.0925 16.8339 16.6222 16.8339H0.850542C0.380224 16.8339 0 17.2141 0 17.6844C0 18.1547 0.380224 18.535 0.850542 18.535H16.6272C17.0925 18.535 17.4728 18.1547 17.4728 17.6844Z" fill="#525A61"/>
</g>
<defs>
<clipPath id="clip0">
<rect width="36" height="36" fill="white"/>
</clipPath>
</defs>
</svg>
