<svg width="36" height="32" viewBox="0 0 36 32" fill="none" xmlns="http://www.w3.org/2000/svg">
<path d="M33.5769 16.6921H21.4615C21.4584 14.647 19.9701 12.9072 17.9502 12.5874C17.702 11.0127 16.5738 9.71952 15.0473 9.26017C14.3888 7.06737 12.0774 5.82356 9.88468 6.48203C8.55078 6.88261 7.50713 7.92618 7.10654 9.26017C5.58009 9.71952 4.4518 11.0127 4.20369 12.5874C2.1838 12.9072 0.695424 14.647 0.692309 16.6921C0.309982 16.6921 1.19649e-06 17.0021 1.19649e-06 17.3844V20.8459C-0.00017188 20.9384 0.0184339 21.0301 0.0546935 21.1152C0.578338 27.2027 5.93775 31.7131 12.0252 31.1894C17.227 30.742 21.4078 26.7189 22.0548 21.5382H33.5769C34.9152 21.5382 36 20.4534 36 19.1152C36 17.7769 34.9152 16.6921 33.5769 16.6921ZM4.84616 13.9229C5.22848 13.9229 5.53846 13.6129 5.53846 13.2306C5.53898 11.8968 6.49186 10.7538 7.80369 10.5132C8.08503 10.4609 8.3051 10.2407 8.35754 9.9594C8.63178 8.45865 10.0707 7.46441 11.5714 7.73865C12.7014 7.94513 13.5857 8.82938 13.7922 9.9594C13.8446 10.2407 14.0647 10.4608 14.346 10.5132C15.6595 10.752 16.6145 11.8955 16.6154 13.2306C16.6154 13.6129 16.9254 13.9229 17.3077 13.9229C18.8371 13.9229 20.0769 15.1627 20.0769 16.6921H2.07692C2.07692 15.1627 3.31676 13.9229 4.84616 13.9229ZM33.5769 20.1536H21.4262C21.061 20.1529 20.7581 20.4358 20.7339 20.8002C20.3843 26.1318 15.7788 30.1704 10.4473 29.8208C5.88289 29.5214 2.15195 26.0663 1.50369 21.5382H12.4615C12.8439 21.5382 13.1538 21.2283 13.1538 20.8459C13.1538 20.4636 12.8439 20.1536 12.4615 20.1536H1.38462V18.0767H33.5769C34.1504 18.0767 34.6154 18.5417 34.6154 19.1152C34.6154 19.6887 34.1504 20.1536 33.5769 20.1536Z" fill="#525A61"/>
<path d="M8.99985 11.8459H7.61523V13.2306H8.99985V11.8459Z" fill="#525A61"/>
<path d="M11.077 13.9229H9.69238V15.3075H11.077V13.9229Z" fill="#525A61"/>
<path d="M7.61557 14.6152H6.23096V15.9998H7.61557V14.6152Z" fill="#525A61"/>
<path d="M11.7694 9.07672H10.3848V10.4613H11.7694V9.07672Z" fill="#525A61"/>
<path d="M15.9232 14.6152H14.5386V15.9998H15.9232V14.6152Z" fill="#525A61"/>
<path d="M13.846 11.8459H12.4614V13.2306H13.846V11.8459Z" fill="#525A61"/>
<path d="M17.9998 20.1537H17.3075C16.9252 20.1537 16.6152 20.4637 16.6152 20.846C16.6152 21.2283 16.9252 21.5383 17.3075 21.5383H17.9998C18.3822 21.5383 18.6922 21.2283 18.6922 20.846C18.6922 20.4637 18.3822 20.1537 17.9998 20.1537Z" fill="#525A61"/>
<path d="M13.8461 3.53827H14.5384V4.23058C14.5384 4.61291 14.8484 4.92289 15.2307 4.92289C15.6131 4.92289 15.923 4.61291 15.923 4.23058V3.53827H16.6153C16.9977 3.53827 17.3077 3.22829 17.3077 2.84597C17.3077 2.46364 16.9977 2.15366 16.6153 2.15366H15.923V1.46135C15.923 1.07902 15.6131 0.769043 15.2307 0.769043C14.8484 0.769043 14.5384 1.07902 14.5384 1.46135V2.15366H13.8461C13.4638 2.15366 13.1538 2.46364 13.1538 2.84597C13.1538 3.22829 13.4638 3.53827 13.8461 3.53827Z" fill="#525A61"/>
<path d="M18.6923 6.99982H19.3846V7.69212C19.3846 8.07445 19.6946 8.38443 20.0769 8.38443C20.4593 8.38443 20.7692 8.07445 20.7692 7.69212V6.99982H21.4615C21.8439 6.99982 22.1538 6.68984 22.1538 6.30751C22.1538 5.92518 21.8439 5.6152 21.4615 5.6152H20.7692V4.9229C20.7692 4.54057 20.4593 4.23059 20.0769 4.23059C19.6946 4.23059 19.3846 4.54057 19.3846 4.9229V5.6152H18.6923C18.31 5.6152 18 5.92518 18 6.30751C18 6.68984 18.31 6.99982 18.6923 6.99982Z" fill="#525A61"/>
</svg>
