<svg width="204" height="41" viewBox="0 0 204 41" fill="none" xmlns="http://www.w3.org/2000/svg">
<path d="M79.0938 37H77.2578V29.625C77.2578 28.7448 77.2786 28.0469 77.3203 27.5312C77.2005 27.6562 77.0521 27.7943 76.875 27.9453C76.7031 28.0964 76.1198 28.5755 75.125 29.3828L74.2031 28.2188L77.5625 25.5781H79.0938V37ZM86.7188 29.8672C87.8698 29.8672 88.7812 30.1719 89.4531 30.7812C90.125 31.3906 90.4609 32.2214 90.4609 33.2734C90.4609 34.4922 90.0781 35.4453 89.3125 36.1328C88.5521 36.8151 87.4688 37.1562 86.0625 37.1562C84.7865 37.1562 83.7839 36.9505 83.0547 36.5391V34.875C83.4766 35.1146 83.9609 35.2995 84.5078 35.4297C85.0547 35.5599 85.5625 35.625 86.0312 35.625C86.8594 35.625 87.4896 35.4401 87.9219 35.0703C88.3542 34.7005 88.5703 34.1589 88.5703 33.4453C88.5703 32.0807 87.7005 31.3984 85.9609 31.3984C85.7161 31.3984 85.4141 31.4245 85.0547 31.4766C84.6953 31.5234 84.3802 31.5781 84.1094 31.6406L83.2891 31.1562L83.7266 25.5781H89.6641V27.2109H85.3438L85.0859 30.0391C85.2682 30.0078 85.4896 29.9714 85.75 29.9297C86.0156 29.888 86.3385 29.8672 86.7188 29.8672ZM99.8906 28.3594V29.3672L98.4141 29.6406C98.5495 29.8229 98.6615 30.0469 98.75 30.3125C98.8385 30.5781 98.8828 30.8594 98.8828 31.1562C98.8828 32.0469 98.5755 32.7474 97.9609 33.2578C97.3464 33.7682 96.5 34.0234 95.4219 34.0234C95.1458 34.0234 94.8958 34.0026 94.6719 33.9609C94.276 34.2057 94.0781 34.4922 94.0781 34.8203C94.0781 35.0182 94.1693 35.1667 94.3516 35.2656C94.5391 35.3646 94.8802 35.4141 95.375 35.4141H96.8828C97.8359 35.4141 98.5599 35.6172 99.0547 36.0234C99.5495 36.4297 99.7969 37.0156 99.7969 37.7812C99.7969 38.7604 99.3932 39.5156 98.5859 40.0469C97.7786 40.5781 96.612 40.8438 95.0859 40.8438C93.9089 40.8438 93.0104 40.6354 92.3906 40.2188C91.7708 39.8021 91.4609 39.2083 91.4609 38.4375C91.4609 37.9062 91.6276 37.4583 91.9609 37.0938C92.2995 36.7344 92.7708 36.4844 93.375 36.3438C93.1302 36.2396 92.9271 36.0729 92.7656 35.8438C92.6094 35.6094 92.5312 35.3646 92.5312 35.1094C92.5312 34.7865 92.6224 34.513 92.8047 34.2891C92.987 34.0651 93.2578 33.8438 93.6172 33.625C93.1693 33.4323 92.8047 33.1198 92.5234 32.6875C92.2474 32.25 92.1094 31.7396 92.1094 31.1562C92.1094 30.2188 92.4036 29.4922 92.9922 28.9766C93.5859 28.4609 94.4297 28.2031 95.5234 28.2031C95.7682 28.2031 96.0234 28.2214 96.2891 28.2578C96.5599 28.2891 96.763 28.3229 96.8984 28.3594H99.8906ZM93.1016 38.3438C93.1016 38.7396 93.2786 39.0443 93.6328 39.2578C93.9922 39.4714 94.4948 39.5781 95.1406 39.5781C96.1406 39.5781 96.8854 39.4349 97.375 39.1484C97.8646 38.862 98.1094 38.4818 98.1094 38.0078C98.1094 37.6328 97.974 37.3646 97.7031 37.2031C97.4375 37.0469 96.9401 36.9688 96.2109 36.9688H94.8203C94.2943 36.9688 93.875 37.0911 93.5625 37.3359C93.2552 37.5859 93.1016 37.9219 93.1016 38.3438ZM93.8906 31.1562C93.8906 31.6979 94.0286 32.1146 94.3047 32.4062C94.5859 32.6979 94.987 32.8438 95.5078 32.8438C96.5703 32.8438 97.1016 32.276 97.1016 31.1406C97.1016 30.5781 96.9688 30.1458 96.7031 29.8438C96.4427 29.5365 96.0443 29.3828 95.5078 29.3828C94.9766 29.3828 94.5729 29.5339 94.2969 29.8359C94.026 30.138 93.8906 30.5781 93.8906 31.1562ZM105.883 28.2031C106.253 28.2031 106.557 28.2292 106.797 28.2812L106.617 29.9922C106.357 29.9297 106.086 29.8984 105.805 29.8984C105.07 29.8984 104.474 30.138 104.016 30.6172C103.562 31.0964 103.336 31.7188 103.336 32.4844V37H101.5V28.3594H102.938L103.18 29.8828H103.273C103.56 29.3672 103.932 28.9583 104.391 28.6562C104.854 28.3542 105.352 28.2031 105.883 28.2031ZM111.891 33.4453V31.9609H118.609V33.4453H111.891ZM131.852 37H124.109V35.6094L127.055 32.6484C127.924 31.7578 128.5 31.1276 128.781 30.7578C129.068 30.3828 129.276 30.0312 129.406 29.7031C129.536 29.375 129.602 29.0234 129.602 28.6484C129.602 28.1328 129.445 27.7266 129.133 27.4297C128.826 27.1328 128.398 26.9844 127.852 26.9844C127.414 26.9844 126.99 27.0651 126.578 27.2266C126.172 27.388 125.701 27.6797 125.164 28.1016L124.172 26.8906C124.807 26.3542 125.424 25.974 126.023 25.75C126.622 25.526 127.26 25.4141 127.938 25.4141C129 25.4141 129.852 25.6927 130.492 26.25C131.133 26.8021 131.453 27.5469 131.453 28.4844C131.453 29 131.359 29.4896 131.172 29.9531C130.99 30.4167 130.706 30.8958 130.32 31.3906C129.94 31.8802 129.305 32.5443 128.414 33.3828L126.43 35.3047V35.3828H131.852V37ZM140.992 31.2891C140.992 33.2734 140.672 34.7474 140.031 35.7109C139.396 36.6745 138.422 37.1562 137.109 37.1562C135.839 37.1562 134.875 36.6589 134.219 35.6641C133.562 34.6693 133.234 33.2109 133.234 31.2891C133.234 29.2734 133.552 27.7891 134.188 26.8359C134.828 25.8776 135.802 25.3984 137.109 25.3984C138.385 25.3984 139.352 25.8984 140.008 26.8984C140.664 27.8984 140.992 29.362 140.992 31.2891ZM135.094 31.2891C135.094 32.8464 135.253 33.9583 135.57 34.625C135.893 35.2917 136.406 35.625 137.109 35.625C137.812 35.625 138.326 35.2865 138.648 34.6094C138.977 33.9323 139.141 32.8255 139.141 31.2891C139.141 29.7578 138.977 28.651 138.648 27.9688C138.326 27.2812 137.812 26.9375 137.109 26.9375C136.406 26.9375 135.893 27.2734 135.57 27.9453C135.253 28.6172 135.094 29.7318 135.094 31.2891ZM154.453 28.3594V29.3672L152.977 29.6406C153.112 29.8229 153.224 30.0469 153.312 30.3125C153.401 30.5781 153.445 30.8594 153.445 31.1562C153.445 32.0469 153.138 32.7474 152.523 33.2578C151.909 33.7682 151.062 34.0234 149.984 34.0234C149.708 34.0234 149.458 34.0026 149.234 33.9609C148.839 34.2057 148.641 34.4922 148.641 34.8203C148.641 35.0182 148.732 35.1667 148.914 35.2656C149.102 35.3646 149.443 35.4141 149.938 35.4141H151.445C152.398 35.4141 153.122 35.6172 153.617 36.0234C154.112 36.4297 154.359 37.0156 154.359 37.7812C154.359 38.7604 153.956 39.5156 153.148 40.0469C152.341 40.5781 151.174 40.8438 149.648 40.8438C148.471 40.8438 147.573 40.6354 146.953 40.2188C146.333 39.8021 146.023 39.2083 146.023 38.4375C146.023 37.9062 146.19 37.4583 146.523 37.0938C146.862 36.7344 147.333 36.4844 147.938 36.3438C147.693 36.2396 147.49 36.0729 147.328 35.8438C147.172 35.6094 147.094 35.3646 147.094 35.1094C147.094 34.7865 147.185 34.513 147.367 34.2891C147.549 34.0651 147.82 33.8438 148.18 33.625C147.732 33.4323 147.367 33.1198 147.086 32.6875C146.81 32.25 146.672 31.7396 146.672 31.1562C146.672 30.2188 146.966 29.4922 147.555 28.9766C148.148 28.4609 148.992 28.2031 150.086 28.2031C150.331 28.2031 150.586 28.2214 150.852 28.2578C151.122 28.2891 151.326 28.3229 151.461 28.3594H154.453ZM147.664 38.3438C147.664 38.7396 147.841 39.0443 148.195 39.2578C148.555 39.4714 149.057 39.5781 149.703 39.5781C150.703 39.5781 151.448 39.4349 151.938 39.1484C152.427 38.862 152.672 38.4818 152.672 38.0078C152.672 37.6328 152.536 37.3646 152.266 37.2031C152 37.0469 151.503 36.9688 150.773 36.9688H149.383C148.857 36.9688 148.438 37.0911 148.125 37.3359C147.818 37.5859 147.664 37.9219 147.664 38.3438ZM148.453 31.1562C148.453 31.6979 148.591 32.1146 148.867 32.4062C149.148 32.6979 149.549 32.8438 150.07 32.8438C151.133 32.8438 151.664 32.276 151.664 31.1406C151.664 30.5781 151.531 30.1458 151.266 29.8438C151.005 29.5365 150.607 29.3828 150.07 29.3828C149.539 29.3828 149.135 29.5339 148.859 29.8359C148.589 30.138 148.453 30.5781 148.453 31.1562ZM160.445 28.2031C160.815 28.2031 161.12 28.2292 161.359 28.2812L161.18 29.9922C160.919 29.9297 160.648 29.8984 160.367 29.8984C159.633 29.8984 159.036 30.138 158.578 30.6172C158.125 31.0964 157.898 31.7188 157.898 32.4844V37H156.062V28.3594H157.5L157.742 29.8828H157.836C158.122 29.3672 158.495 28.9583 158.953 28.6562C159.417 28.3542 159.914 28.2031 160.445 28.2031ZM167.766 25.5781L163.516 37H161.781L166.039 25.5781H167.766ZM169.414 37V25.5781H171.281V35.3984H176.117V37H169.414ZM179.727 37H177.891V28.3594H179.727V37ZM177.781 26.0703C177.781 25.7422 177.87 25.4896 178.047 25.3125C178.229 25.1354 178.487 25.0469 178.82 25.0469C179.143 25.0469 179.393 25.1354 179.57 25.3125C179.753 25.4896 179.844 25.7422 179.844 26.0703C179.844 26.3828 179.753 26.6302 179.57 26.8125C179.393 26.9896 179.143 27.0781 178.82 27.0781C178.487 27.0781 178.229 26.9896 178.047 26.8125C177.87 26.6302 177.781 26.3828 177.781 26.0703ZM185.578 35.6719C186.026 35.6719 186.474 35.6016 186.922 35.4609V36.8438C186.719 36.9323 186.456 37.0052 186.133 37.0625C185.815 37.125 185.484 37.1562 185.141 37.1562C183.401 37.1562 182.531 36.2396 182.531 34.4062V29.75H181.352V28.9375L182.617 28.2656L183.242 26.4375H184.375V28.3594H186.836V29.75H184.375V34.375C184.375 34.8177 184.484 35.1458 184.703 35.3594C184.927 35.5677 185.219 35.6719 185.578 35.6719ZM192.43 37.1562C191.086 37.1562 190.034 36.7656 189.273 35.9844C188.518 35.1979 188.141 34.1172 188.141 32.7422C188.141 31.3307 188.492 30.2214 189.195 29.4141C189.898 28.6068 190.865 28.2031 192.094 28.2031C193.234 28.2031 194.135 28.5495 194.797 29.2422C195.458 29.9349 195.789 30.888 195.789 32.1016V33.0938H190.031C190.057 33.9323 190.284 34.5781 190.711 35.0312C191.138 35.4792 191.74 35.7031 192.516 35.7031C193.026 35.7031 193.5 35.6562 193.938 35.5625C194.38 35.4635 194.854 35.3021 195.359 35.0781V36.5703C194.911 36.7839 194.458 36.9349 194 37.0234C193.542 37.112 193.018 37.1562 192.43 37.1562ZM192.094 29.5938C191.51 29.5938 191.042 29.7786 190.688 30.1484C190.339 30.5182 190.13 31.0573 190.062 31.7656H193.984C193.974 31.0521 193.802 30.513 193.469 30.1484C193.135 29.7786 192.677 29.5938 192.094 29.5938ZM202.258 28.2031C202.628 28.2031 202.932 28.2292 203.172 28.2812L202.992 29.9922C202.732 29.9297 202.461 29.8984 202.18 29.8984C201.445 29.8984 200.849 30.138 200.391 30.6172C199.938 31.0964 199.711 31.7188 199.711 32.4844V37H197.875V28.3594H199.312L199.555 29.8828H199.648C199.935 29.3672 200.307 28.9583 200.766 28.6562C201.229 28.3542 201.727 28.2031 202.258 28.2031Z" fill="#31304F"/>
<path d="M73.784 16V15.312L75.16 15.024V5.856L73.784 5.6V4.912L77.864 4.832V5.52L76.472 5.84V9.824H82.264V5.84L80.888 5.6V4.912L84.968 4.832V5.52L83.576 5.84V15.024L84.968 15.312V16H80.888V15.312L82.264 15.024V10.8H76.472V15.024L77.864 15.312V16H73.784ZM90.1727 7.408C91.3354 7.408 92.2528 7.776 92.9248 8.512C93.5968 9.248 93.9328 10.288 93.9328 11.632C93.9328 12.5493 93.7728 13.344 93.4528 14.016C93.1328 14.688 92.6688 15.2107 92.0608 15.584C91.4634 15.9573 90.7434 16.144 89.9008 16.144C88.7488 16.144 87.8474 15.7867 87.1968 15.072C86.5461 14.3467 86.2208 13.3067 86.2208 11.952C86.2208 11.024 86.3754 10.2187 86.6848 9.536C87.0048 8.85333 87.4581 8.33067 88.0448 7.968C88.6421 7.59467 89.3514 7.408 90.1727 7.408ZM90.1088 8.352C89.2874 8.352 88.6581 8.66133 88.2208 9.28C87.7834 9.89867 87.5648 10.768 87.5648 11.888C87.5648 12.9867 87.7728 13.8133 88.1888 14.368C88.6048 14.9227 89.2021 15.2 89.9808 15.2C90.8341 15.2 91.4794 14.8907 91.9168 14.272C92.3648 13.6533 92.5888 12.7947 92.5888 11.696C92.5888 10.608 92.3701 9.78133 91.9328 9.216C91.5061 8.64 90.8981 8.352 90.1088 8.352ZM99.0879 16.144C98.3732 16.144 97.7385 15.984 97.1839 15.664C96.6399 15.3333 96.2132 14.8533 95.9039 14.224C95.5945 13.5947 95.4399 12.8213 95.4399 11.904C95.4399 10.9867 95.5999 10.192 95.9199 9.52C96.2399 8.848 96.6879 8.33067 97.2639 7.968C97.8505 7.59467 98.5439 7.408 99.3439 7.408C100.091 7.408 100.704 7.568 101.184 7.888C101.675 8.19733 102.037 8.62933 102.272 9.184C102.517 9.73867 102.64 10.3733 102.64 11.088C102.64 11.2053 102.635 11.328 102.624 11.456C102.613 11.5733 102.603 11.712 102.592 11.872H96.7679C96.7892 12.8747 97.0239 13.6747 97.4719 14.272C97.9199 14.8587 98.5599 15.152 99.3919 15.152C99.7865 15.152 100.219 15.0773 100.688 14.928C101.157 14.768 101.643 14.528 102.144 14.208L102.608 14.928C102.011 15.344 101.413 15.6533 100.816 15.856C100.219 16.048 99.6425 16.144 99.0879 16.144ZM99.2479 8.384C98.5439 8.384 97.9839 8.624 97.5679 9.104C97.1625 9.57333 96.9119 10.192 96.8159 10.96H101.312C101.323 10.5013 101.259 10.08 101.12 9.696C100.981 9.30133 100.757 8.98667 100.448 8.752C100.149 8.50667 99.7492 8.384 99.2479 8.384ZM108.261 7.6L111.605 7.488V8.192L110.661 8.464L107.957 16.032H106.453L103.957 8.48L103.029 8.288V7.6L106.549 7.488V8.192L105.269 8.432L107.301 15.024L109.509 8.448L108.261 8.288V7.6ZM115.65 16.144C114.936 16.144 114.301 15.984 113.746 15.664C113.202 15.3333 112.776 14.8533 112.466 14.224C112.157 13.5947 112.002 12.8213 112.002 11.904C112.002 10.9867 112.162 10.192 112.482 9.52C112.802 8.848 113.25 8.33067 113.826 7.968C114.413 7.59467 115.106 7.408 115.906 7.408C116.653 7.408 117.266 7.568 117.746 7.888C118.237 8.19733 118.6 8.62933 118.834 9.184C119.08 9.73867 119.202 10.3733 119.202 11.088C119.202 11.2053 119.197 11.328 119.186 11.456C119.176 11.5733 119.165 11.712 119.154 11.872H113.33C113.352 12.8747 113.586 13.6747 114.034 14.272C114.482 14.8587 115.122 15.152 115.954 15.152C116.349 15.152 116.781 15.0773 117.25 14.928C117.72 14.768 118.205 14.528 118.706 14.208L119.17 14.928C118.573 15.344 117.976 15.6533 117.378 15.856C116.781 16.048 116.205 16.144 115.65 16.144ZM115.81 8.384C115.106 8.384 114.546 8.624 114.13 9.104C113.725 9.57333 113.474 10.192 113.378 10.96H117.874C117.885 10.5013 117.821 10.08 117.682 9.696C117.544 9.30133 117.32 8.98667 117.01 8.752C116.712 8.50667 116.312 8.384 115.81 8.384ZM124.4 16.144C123.686 16.144 123.051 15.984 122.496 15.664C121.952 15.3333 121.526 14.8533 121.216 14.224C120.907 13.5947 120.752 12.8213 120.752 11.904C120.752 10.9867 120.912 10.192 121.232 9.52C121.552 8.848 122 8.33067 122.576 7.968C123.163 7.59467 123.856 7.408 124.656 7.408C125.403 7.408 126.016 7.568 126.496 7.888C126.987 8.19733 127.35 8.62933 127.584 9.184C127.83 9.73867 127.952 10.3733 127.952 11.088C127.952 11.2053 127.947 11.328 127.936 11.456C127.926 11.5733 127.915 11.712 127.904 11.872H122.08C122.102 12.8747 122.336 13.6747 122.784 14.272C123.232 14.8587 123.872 15.152 124.704 15.152C125.099 15.152 125.531 15.0773 126 14.928C126.47 14.768 126.955 14.528 127.456 14.208L127.92 14.928C127.323 15.344 126.726 15.6533 126.128 15.856C125.531 16.048 124.955 16.144 124.4 16.144ZM124.56 8.384C123.856 8.384 123.296 8.624 122.88 9.104C122.475 9.57333 122.224 10.192 122.128 10.96H126.624C126.635 10.5013 126.571 10.08 126.432 9.696C126.294 9.30133 126.07 8.98667 125.76 8.752C125.462 8.50667 125.062 8.384 124.56 8.384ZM132.91 15.312V16H129.118V15.312L130.382 15.04V4.704L129.118 4.448V3.76L131.662 3.648V15.04L132.91 15.312ZM133.728 16V15.312L134.992 15.04V4.72L133.728 4.448V3.76L136.272 3.648V8.72C136.762 8.272 137.269 7.94133 137.792 7.728C138.325 7.51467 138.826 7.408 139.296 7.408C140.01 7.408 140.597 7.62667 141.056 8.064C141.525 8.50133 141.754 9.16267 141.744 10.048V15.04L142.992 15.312V16H139.264V15.312L140.464 15.056V10.336C140.474 9.67467 140.325 9.18933 140.016 8.88C139.706 8.57067 139.301 8.416 138.8 8.416C138.426 8.416 138.016 8.51733 137.568 8.72C137.13 8.912 136.698 9.216 136.272 9.632V15.056L137.472 15.312V16H133.728ZM147.682 16.144C146.967 16.144 146.332 15.984 145.778 15.664C145.234 15.3333 144.807 14.8533 144.498 14.224C144.188 13.5947 144.034 12.8213 144.034 11.904C144.034 10.9867 144.194 10.192 144.514 9.52C144.834 8.848 145.282 8.33067 145.858 7.968C146.444 7.59467 147.138 7.408 147.938 7.408C148.684 7.408 149.298 7.568 149.778 7.888C150.268 8.19733 150.631 8.62933 150.866 9.184C151.111 9.73867 151.234 10.3733 151.234 11.088C151.234 11.2053 151.228 11.328 151.218 11.456C151.207 11.5733 151.196 11.712 151.186 11.872H145.362C145.383 12.8747 145.618 13.6747 146.066 14.272C146.514 14.8587 147.154 15.152 147.986 15.152C148.38 15.152 148.812 15.0773 149.282 14.928C149.751 14.768 150.236 14.528 150.738 14.208L151.202 14.928C150.604 15.344 150.007 15.6533 149.41 15.856C148.812 16.048 148.236 16.144 147.682 16.144ZM147.842 8.384C147.138 8.384 146.578 8.624 146.162 9.104C145.756 9.57333 145.506 10.192 145.41 10.96H149.906C149.916 10.5013 149.852 10.08 149.714 9.696C149.575 9.30133 149.351 8.98667 149.042 8.752C148.743 8.50667 148.343 8.384 147.842 8.384ZM156.4 15.312V16H152.624V15.312L153.872 15.04V8.544L152.624 8.288V7.6L155.152 7.504V15.04L156.4 15.312ZM154.416 5.776C154.17 5.776 153.968 5.70133 153.808 5.552C153.648 5.392 153.568 5.168 153.568 4.88C153.568 4.592 153.648 4.37333 153.808 4.224C153.978 4.064 154.186 3.984 154.432 3.984C154.688 3.984 154.896 4.064 155.056 4.224C155.216 4.37333 155.296 4.592 155.296 4.88C155.296 5.168 155.21 5.392 155.04 5.552C154.88 5.70133 154.672 5.776 154.416 5.776ZM160.701 16.144C160.104 16.144 159.565 15.984 159.085 15.664C158.616 15.3333 158.243 14.8533 157.965 14.224C157.688 13.584 157.549 12.8107 157.549 11.904C157.549 10.4213 157.923 9.30133 158.669 8.544C159.427 7.78667 160.472 7.408 161.805 7.408C162.04 7.408 162.285 7.424 162.541 7.456C162.808 7.488 163.08 7.536 163.357 7.6V4.736L162.029 4.448V3.76L164.637 3.648V15.04L165.885 15.28V15.984L163.645 16.08L163.485 14.88C162.579 15.7227 161.651 16.144 160.701 16.144ZM161.149 15.168C161.491 15.168 161.848 15.0827 162.221 14.912C162.605 14.7413 162.984 14.4853 163.357 14.144V8.608C162.781 8.43733 162.248 8.352 161.757 8.352C160.819 8.352 160.104 8.656 159.613 9.264C159.123 9.872 158.877 10.7147 158.877 11.792C158.877 12.848 159.091 13.6747 159.517 14.272C159.955 14.8693 160.499 15.168 161.149 15.168ZM167.114 15.248C167.114 14.992 167.199 14.7893 167.37 14.64C167.54 14.4907 167.738 14.416 167.962 14.416C168.218 14.416 168.42 14.4907 168.57 14.64C168.719 14.7893 168.794 14.992 168.794 15.248C168.794 15.504 168.708 15.7067 168.538 15.856C168.367 16.0053 168.175 16.08 167.962 16.08C167.706 16.08 167.498 16.0053 167.338 15.856C167.188 15.7067 167.114 15.504 167.114 15.248ZM167.114 9.456C167.114 9.2 167.199 8.99733 167.37 8.848C167.54 8.69867 167.738 8.624 167.962 8.624C168.218 8.624 168.42 8.69867 168.57 8.848C168.719 8.99733 168.794 9.2 168.794 9.456C168.794 9.712 168.708 9.91467 168.538 10.064C168.367 10.2133 168.175 10.288 167.962 10.288C167.706 10.288 167.498 10.2133 167.338 10.064C167.188 9.91467 167.114 9.712 167.114 9.456Z" fill="#525A61"/>
<g clip-path="url(#clip0)">
<path d="M33.5769 21.6921H21.4615C21.4584 19.647 19.9701 17.9072 17.9502 17.5874C17.702 16.0127 16.5738 14.7195 15.0473 14.2602C14.3888 12.0674 12.0774 10.8236 9.88468 11.482C8.55078 11.8826 7.50713 12.9262 7.10654 14.2602C5.58009 14.7195 4.4518 16.0127 4.20369 17.5874C2.1838 17.9072 0.695424 19.647 0.692309 21.6921C0.309982 21.6921 1.19649e-06 22.0021 1.19649e-06 22.3844V25.8459C-0.00017188 25.9384 0.0184339 26.0301 0.0546935 26.1152C0.578338 32.2027 5.93775 36.7131 12.0252 36.1894C17.227 35.742 21.4078 31.7189 22.0548 26.5382H33.5769C34.9152 26.5382 36 25.4534 36 24.1152C36 22.7769 34.9152 21.6921 33.5769 21.6921ZM4.84616 18.9229C5.22848 18.9229 5.53846 18.6129 5.53846 18.2306C5.53898 16.8968 6.49186 15.7538 7.80369 15.5132C8.08503 15.4609 8.3051 15.2407 8.35754 14.9594C8.63178 13.4587 10.0707 12.4644 11.5714 12.7387C12.7014 12.9451 13.5857 13.8294 13.7922 14.9594C13.8446 15.2407 14.0647 15.4608 14.346 15.5132C15.6595 15.752 16.6145 16.8955 16.6154 18.2306C16.6154 18.6129 16.9254 18.9229 17.3077 18.9229C18.8371 18.9229 20.0769 20.1627 20.0769 21.6921H2.07692C2.07692 20.1627 3.31676 18.9229 4.84616 18.9229ZM33.5769 25.1536H21.4262C21.061 25.1529 20.7581 25.4358 20.7339 25.8002C20.3843 31.1318 15.7788 35.1704 10.4473 34.8208C5.88289 34.5214 2.15195 31.0663 1.50369 26.5382H12.4615C12.8439 26.5382 13.1538 26.2283 13.1538 25.8459C13.1538 25.4636 12.8439 25.1536 12.4615 25.1536H1.38462V23.0767H33.5769C34.1504 23.0767 34.6154 23.5417 34.6154 24.1152C34.6154 24.6887 34.1504 25.1536 33.5769 25.1536Z" fill="#525A61"/>
<path d="M8.99985 16.8459H7.61523V18.2306H8.99985V16.8459Z" fill="#525A61"/>
<path d="M11.077 18.9229H9.69238V20.3075H11.077V18.9229Z" fill="#525A61"/>
<path d="M7.61557 19.6152H6.23096V20.9998H7.61557V19.6152Z" fill="#525A61"/>
<path d="M11.7694 14.0767H10.3848V15.4613H11.7694V14.0767Z" fill="#525A61"/>
<path d="M15.9232 19.6152H14.5386V20.9998H15.9232V19.6152Z" fill="#525A61"/>
<path d="M13.846 16.8459H12.4614V18.2306H13.846V16.8459Z" fill="#525A61"/>
<path d="M17.9998 25.1537H17.3075C16.9252 25.1537 16.6152 25.4637 16.6152 25.846C16.6152 26.2283 16.9252 26.5383 17.3075 26.5383H17.9998C18.3822 26.5383 18.6922 26.2283 18.6922 25.846C18.6922 25.4637 18.3822 25.1537 17.9998 25.1537Z" fill="#525A61"/>
<path d="M13.8461 8.53827H14.5384V9.23058C14.5384 9.61291 14.8484 9.92289 15.2307 9.92289C15.6131 9.92289 15.923 9.61291 15.923 9.23058V8.53827H16.6153C16.9977 8.53827 17.3077 8.22829 17.3077 7.84597C17.3077 7.46364 16.9977 7.15366 16.6153 7.15366H15.923V6.46135C15.923 6.07902 15.6131 5.76904 15.2307 5.76904C14.8484 5.76904 14.5384 6.07902 14.5384 6.46135V7.15366H13.8461C13.4638 7.15366 13.1538 7.46364 13.1538 7.84597C13.1538 8.22829 13.4638 8.53827 13.8461 8.53827Z" fill="#525A61"/>
<path d="M18.6923 11.9998H19.3846V12.6921C19.3846 13.0744 19.6946 13.3844 20.0769 13.3844C20.4593 13.3844 20.7692 13.0744 20.7692 12.6921V11.9998H21.4615C21.8439 11.9998 22.1538 11.6898 22.1538 11.3075C22.1538 10.9252 21.8439 10.6152 21.4615 10.6152H20.7692V9.9229C20.7692 9.54057 20.4593 9.23059 20.0769 9.23059C19.6946 9.23059 19.3846 9.54057 19.3846 9.9229V10.6152H18.6923C18.31 10.6152 18 10.9252 18 11.3075C18 11.6898 18.31 11.9998 18.6923 11.9998Z" fill="#525A61"/>
</g>
<defs>
<clipPath id="clip0">
<rect width="36" height="36" fill="white" transform="translate(0 3)"/>
</clipPath>
</defs>
</svg>
