<svg width="10" height="10" viewBox="0 0 10 10" fill="none" xmlns="http://www.w3.org/2000/svg">
<path d="M9.62577 9.63834C9.40049 9.86286 9.09575 9.98888 8.77811 9.98888C8.46047 9.98888 8.15573 9.86286 7.93046 9.63834L4.99673 6.69701L2.06301 9.63834C1.95165 9.75224 1.81886 9.84286 1.67232 9.90493C1.52578 9.96701 1.36842 9.99932 1.20934 9.99998C0.970525 10.0014 0.736707 9.93143 0.537695 9.79907C0.338683 9.66671 0.183494 9.47792 0.0919151 9.25679C0.00033626 9.03566 -0.0234872 8.79219 0.023488 8.55743C0.0704633 8.32267 0.186105 8.10725 0.355671 7.93864L3.2894 4.9491L0.355671 2.05599C0.244355 1.94359 0.156214 1.81032 0.0962725 1.66377C0.036331 1.51722 0.00576653 1.36027 0.00632477 1.20188C0.00688301 1.04349 0.0385516 0.886756 0.0995245 0.740635C0.160497 0.594515 0.24958 0.461866 0.361685 0.350262C0.47379 0.238658 0.606722 0.150284 0.752892 0.0901875C0.899063 0.0300908 1.05561 -0.000552156 1.21359 7.53066e-06C1.37157 0.000567218 1.5279 0.0323187 1.67364 0.0934496C1.81938 0.15458 1.95169 0.243893 2.06301 0.356288L4.99673 3.29761L7.93046 0.356288C8.15573 0.13177 8.46047 0.00574929 8.77811 0.00574929C9.09575 0.00574929 9.40049 0.13177 9.62577 0.356288C9.8497 0.582147 9.9754 0.887674 9.9754 1.20614C9.9754 1.52461 9.8497 1.83013 9.62577 2.05599L6.69204 4.9491L9.62577 7.89042C9.744 8.00304 9.83815 8.13859 9.90249 8.28883C9.96682 8.43908 10 8.60088 10 8.76438C10 8.92789 9.96682 9.08968 9.90249 9.23993C9.83815 9.39017 9.744 9.52573 9.62577 9.63834Z" fill="#8AA4E4"/>
</svg>
