<svg width="25" height="24" viewBox="0 0 25 24" fill="none" xmlns="http://www.w3.org/2000/svg">
<g clip-path="url(#clip0)">
<path d="M16.9909 0H7.29035C3.34798 0 0.140625 3.20735 0.140625 7.14973V16.8503C0.140625 20.7926 3.34798 24 7.29035 24H16.9909C20.9333 24 24.1406 20.7926 24.1406 16.8503V7.14973C24.1406 3.20735 20.9332 0 16.9909 0ZM21.7262 16.8503C21.7262 19.4655 19.6061 21.5856 16.9909 21.5856H7.29035C4.67513 21.5856 2.55502 19.4655 2.55502 16.8503V7.14973C2.55502 4.53446 4.67513 2.4144 7.29035 2.4144H16.9909C19.6061 2.4144 21.7262 4.53446 21.7262 7.14973V16.8503Z" fill="white"/>
<path d="M12.1408 5.79272C8.71816 5.79272 5.93359 8.57729 5.93359 11.9999C5.93359 15.4226 8.71816 18.2072 12.1408 18.2072C15.5635 18.2072 18.3481 15.4226 18.3481 11.9999C18.3481 8.57725 15.5635 5.79272 12.1408 5.79272ZM12.1408 15.7928C10.0461 15.7928 8.34799 14.0947 8.34799 12C8.34799 9.90523 10.0461 8.20712 12.1408 8.20712C14.2356 8.20712 15.9337 9.90523 15.9337 12C15.9337 14.0947 14.2356 15.7928 12.1408 15.7928Z" fill="white"/>
<path d="M18.3585 7.32682C19.1799 7.32682 19.8459 6.6609 19.8459 5.83944C19.8459 5.01798 19.1799 4.35205 18.3585 4.35205C17.537 4.35205 16.8711 5.01798 16.8711 5.83944C16.8711 6.6609 17.537 7.32682 18.3585 7.32682Z" fill="white"/>
</g>
<defs>
<clipPath id="clip0">
<rect width="24" height="24" fill="white" transform="translate(0.140625)"/>
</clipPath>
</defs>
</svg>
