<svg width="99" height="99" viewBox="0 0 99 99" fill="none" xmlns="http://www.w3.org/2000/svg">
<path d="M78.6192 40.3044C89.6229 40.3044 98.5431 31.3841 98.5431 20.3805C98.5431 9.37678 89.6229 0.456543 78.6192 0.456543C67.6156 0.456543 58.6953 9.37678 58.6953 20.3805C58.6953 31.3841 67.6156 40.3044 78.6192 40.3044Z" fill="#8CCC0C"/>
<path d="M49.5005 0.456543C39.8007 0.456543 30.3186 3.33289 22.2534 8.72186C14.1883 14.1108 7.90225 21.7704 4.19027 30.7319C0.478282 39.6934 -0.492944 49.5544 1.39941 59.0679C3.29176 68.5814 7.9627 77.3202 14.8216 84.179C21.6804 91.0379 30.4191 95.7088 39.9326 97.6012C49.4461 99.4935 59.3071 98.5223 68.2687 94.8103C77.2302 91.0983 84.8897 84.8123 90.2787 76.7471C95.6677 68.682 98.544 59.1999 98.544 49.5C98.544 36.4929 93.377 24.0185 84.1795 14.821C74.9821 5.62361 62.5077 0.456543 49.5005 0.456543ZM49.5005 92.4131C41.0131 92.4131 32.7163 89.8963 25.6593 85.1809C18.6023 80.4656 13.102 73.7635 9.85405 65.9221C6.60606 58.0808 5.75624 49.4524 7.41205 41.1281C9.06786 32.8038 13.1549 25.1574 19.1564 19.1559C25.1579 13.1544 32.8043 9.06735 41.1286 7.41154C49.4529 5.75573 58.0813 6.60555 65.9226 9.85354C73.764 13.1015 80.4661 18.6018 85.1814 25.6588C89.8968 32.7158 92.4136 41.0126 92.4136 49.5C92.4136 60.8813 87.8924 71.7964 79.8446 79.8441C71.7969 87.8919 60.8818 92.4131 49.5005 92.4131Z" fill="#31304F"/>
<path d="M61.7627 74.022H37.241C35.5481 74.022 34.1758 75.3943 34.1758 77.0872C34.1758 78.7801 35.5481 80.1524 37.241 80.1524H61.7627C63.4556 80.1524 64.828 78.7801 64.828 77.0872C64.828 75.3943 63.4556 74.022 61.7627 74.022Z" fill="#8CCC0C"/>
<path d="M48.8871 59.7992C48.0635 59.8 47.2482 59.6348 46.4899 59.3136C45.7315 58.9923 45.0456 58.5216 44.4732 57.9294L34.6339 47.7835C34.0689 47.1982 33.7595 46.4124 33.7739 45.599C33.7883 44.7856 34.1252 44.0112 34.7105 43.4462C35.2958 42.8812 36.0816 42.5719 36.895 42.5863C37.7084 42.6006 38.4828 42.9375 39.0478 43.5229L48.8871 53.6687L67.2785 30.3424C67.7865 29.688 68.5338 29.2622 69.3558 29.1587C70.1778 29.0553 71.0073 29.2826 71.6617 29.7907C72.3161 30.2988 72.7419 31.046 72.8454 31.868C72.9489 32.6901 72.7215 33.5195 72.2135 34.1739L53.8221 57.5003C53.2779 58.182 52.5944 58.7397 51.8174 59.1361C51.0403 59.5326 50.1877 59.7586 49.3163 59.7992H48.8871Z" fill="#31304F"/>
</svg>
