<svg width="20" height="24" viewBox="0 0 20 24" fill="none" xmlns="http://www.w3.org/2000/svg">
<path d="M9.75 10.5C10.7884 10.5 11.8034 10.1921 12.6667 9.61522C13.5301 9.03834 14.203 8.2184 14.6004 7.25909C14.9977 6.29978 15.1017 5.24418 14.8991 4.22578C14.6966 3.20738 14.1965 2.27192 13.4623 1.53769C12.7281 0.803466 11.7926 0.303452 10.7742 0.10088C9.75583 -0.101693 8.70023 0.00227474 7.74091 0.399635C6.7816 0.796995 5.96166 1.4699 5.38478 2.33326C4.80791 3.19662 4.5 4.21165 4.5 5.25C4.5 6.64239 5.05312 7.97775 6.03769 8.96232C7.02226 9.94688 8.35761 10.5 9.75 10.5ZM9.75 1.5C10.4917 1.5 11.2167 1.71994 11.8334 2.13199C12.4501 2.54405 12.9307 3.12972 13.2146 3.81494C13.4984 4.50016 13.5726 5.25416 13.4279 5.98159C13.2833 6.70902 12.9261 7.37721 12.4017 7.90166C11.8772 8.4261 11.209 8.78326 10.4816 8.92795C9.75416 9.07265 9.00016 8.99838 8.31494 8.71455C7.62971 8.43073 7.04404 7.95008 6.63199 7.33339C6.21993 6.71671 6 5.99168 6 5.25C6 4.25544 6.39509 3.30161 7.09835 2.59835C7.80161 1.89509 8.75544 1.5 9.75 1.5Z" fill="#31304F"/>
<path d="M9.75 12C7.16536 12.004 4.68771 13.0325 2.86009 14.8601C1.03247 16.6877 0.00396723 19.1654 0 21.75C7.96647e-05 22.2984 0.0502884 22.8457 0.15 23.385C0.181503 23.5572 0.272227 23.7129 0.406459 23.8252C0.540691 23.9375 0.709978 23.9994 0.885001 24H18.615C18.79 23.9994 18.9593 23.9375 19.0935 23.8252C19.2278 23.7129 19.3185 23.5572 19.35 23.385C19.4497 22.8457 19.4999 22.2984 19.5 21.75C19.496 19.1654 18.4675 16.6877 16.6399 14.8601C14.8123 13.0325 12.3346 12.004 9.75 12ZM17.97 22.5H1.47C1.45749 22.2502 1.45749 21.9998 1.47 21.75C1.47 19.562 2.3392 17.4635 3.88637 15.9164C5.43355 14.3692 7.53197 13.5 9.72 13.5C11.908 13.5 14.0065 14.3692 15.5536 15.9164C17.1008 17.4635 17.97 19.562 17.97 21.75C17.9825 21.9998 17.9825 22.2502 17.97 22.5Z" fill="#31304F"/>
</svg>
