<svg width="36" height="18" viewBox="0 0 36 18" fill="none" xmlns="http://www.w3.org/2000/svg">
<path d="M26.2496 0.695441C25.7018 1.24592 25.7039 2.13628 26.2543 2.68416L31.1876 7.59365L1.40625 7.59365C0.629578 7.59365 -4.15057e-07 8.22323 -3.81108e-07 8.9999C-3.47158e-07 9.77657 0.629578 10.4061 1.40625 10.4061L31.1877 10.4061L26.2543 15.3156C25.7038 15.8635 25.7017 16.7539 26.2496 17.3044C26.7975 17.8549 27.6879 17.8569 28.2383 17.3091L35.5863 9.99664C35.5868 9.99622 35.5871 9.99573 35.5876 9.99531C36.1366 9.44743 36.1384 8.55418 35.5876 8.00448C35.5871 8.00406 35.5868 8.00357 35.5864 8.00315L28.2384 0.690659C27.688 0.142926 26.7976 0.144824 26.2496 0.695441Z" fill="white"/>
</svg>
