<svg width="25" height="25" viewBox="0 0 25 25" fill="none" xmlns="http://www.w3.org/2000/svg">
<g clip-path="url(#clip0)">
<path d="M6.77214 19.7917H4.6888C4.4013 19.7917 4.16797 19.5583 4.16797 19.2708C4.16797 18.9833 4.4013 18.75 4.6888 18.75H6.77214C7.05964 18.75 7.29297 18.9833 7.29297 19.2708C7.29297 19.5583 7.05964 19.7917 6.77214 19.7917Z" fill="#8CCC0C"/>
<path d="M23.6985 19.7917H22.3964C22.1089 19.7917 21.8756 19.5584 21.8756 19.2709C21.8756 18.9834 22.1089 18.7501 22.3964 18.7501H23.2662L23.9683 15.0084C23.9589 13.0938 22.3235 11.4584 20.3131 11.4584H16.8933L15.236 18.7501H18.2297C18.5172 18.7501 18.7506 18.9834 18.7506 19.2709C18.7506 19.5584 18.5172 19.7917 18.2297 19.7917H14.5839C14.4256 19.7917 14.2756 19.7198 14.1766 19.5959C14.0777 19.473 14.0402 19.3105 14.0756 19.1563L15.9693 10.823C16.0235 10.5844 16.2339 10.4167 16.4777 10.4167H20.3131C22.8974 10.4167 25.0006 12.5198 25.0006 15.1042L24.2099 19.3667C24.1641 19.6136 23.9495 19.7917 23.6985 19.7917Z" fill="#8CCC0C"/>
<path d="M20.3112 21.875C18.8758 21.875 17.707 20.7073 17.707 19.2709C17.707 17.8344 18.8758 16.6667 20.3112 16.6667C21.7466 16.6667 22.9154 17.8344 22.9154 19.2709C22.9154 20.7073 21.7466 21.875 20.3112 21.875ZM20.3112 17.7084C19.4497 17.7084 18.7487 18.4094 18.7487 19.2709C18.7487 20.1323 19.4497 20.8334 20.3112 20.8334C21.1726 20.8334 21.8737 20.1323 21.8737 19.2709C21.8737 18.4094 21.1726 17.7084 20.3112 17.7084Z" fill="#8CCC0C"/>
<path d="M8.85417 21.875C7.41875 21.875 6.25 20.7073 6.25 19.2709C6.25 17.8344 7.41875 16.6667 8.85417 16.6667C10.2896 16.6667 11.4583 17.8344 11.4583 19.2709C11.4583 20.7073 10.2896 21.875 8.85417 21.875ZM8.85417 17.7084C7.99271 17.7084 7.29167 18.4094 7.29167 19.2709C7.29167 20.1323 7.99271 20.8334 8.85417 20.8334C9.71563 20.8334 10.4167 20.1323 10.4167 19.2709C10.4167 18.4094 9.71563 17.7084 8.85417 17.7084Z" fill="#8CCC0C"/>
<path d="M6.76953 10.4167H2.60286C2.31536 10.4167 2.08203 10.1833 2.08203 9.89584C2.08203 9.60833 2.31536 9.375 2.60286 9.375H6.76953C7.05703 9.375 7.29036 9.60833 7.29036 9.89584C7.29036 10.1833 7.05703 10.4167 6.76953 10.4167Z" fill="#8CCC0C"/>
<path d="M6.77214 13.5417H1.5638C1.2763 13.5417 1.04297 13.3083 1.04297 13.0208C1.04297 12.7333 1.2763 12.5 1.5638 12.5H6.77214C7.05964 12.5 7.29297 12.7333 7.29297 13.0208C7.29297 13.3083 7.05964 13.5417 6.77214 13.5417Z" fill="#8CCC0C"/>
<path d="M6.77083 16.6667H0.520833C0.233333 16.6667 0 16.4333 0 16.1458C0 15.8583 0.233333 15.625 0.520833 15.625H6.77083C7.05833 15.625 7.29167 15.8583 7.29167 16.1458C7.29167 16.4333 7.05833 16.6667 6.77083 16.6667Z" fill="#8CCC0C"/>
<path d="M14.5846 19.7917H10.9388C10.6513 19.7917 10.418 19.5584 10.418 19.2709C10.418 18.9834 10.6513 18.7501 10.9388 18.7501H14.169L16.5357 8.33338H4.6888C4.4013 8.33338 4.16797 8.10005 4.16797 7.81255C4.16797 7.52505 4.4013 7.29172 4.6888 7.29172H17.1888C17.3471 7.29172 17.4971 7.36359 17.5961 7.48755C17.6951 7.61047 17.7326 7.77297 17.6971 7.92713L15.093 19.3855C15.0388 19.624 14.8273 19.7917 14.5846 19.7917Z" fill="#8CCC0C"/>
</g>
<defs>
<clipPath id="clip0">
<rect width="25" height="25" fill="white"/>
</clipPath>
</defs>
</svg>
